<?xml version="1.0" encoding="UTF-8" standalone="no"?>
<!-- Created with Inkscape (http://www.inkscape.org/) -->

<svg
   xmlns:dc="http://purl.org/dc/elements/1.1/"
   xmlns:cc="http://creativecommons.org/ns#"
   xmlns:rdf="http://www.w3.org/1999/02/22-rdf-syntax-ns#"
   xmlns:svg="http://www.w3.org/2000/svg"
   xmlns="http://www.w3.org/2000/svg"
   xmlns:sodipodi="http://sodipodi.sourceforge.net/DTD/sodipodi-0.dtd"
   xmlns:inkscape="http://www.inkscape.org/namespaces/inkscape"
   width="20.637501mm"
   height="15.596018mm"
   viewBox="0 0 20.637501 15.596018"
   version="1.1"
   id="svg8"
   inkscape:version="0.92.1 r15371"
   sodipodi:docname="book.svg">
  <defs
     id="defs2" />
  <sodipodi:namedview
     id="base"
     pagecolor="#ffffff"
     bordercolor="#666666"
     borderopacity="1.0"
     inkscape:pageopacity="0.0"
     inkscape:pageshadow="2"
     inkscape:zoom="0.49497475"
     inkscape:cx="508.60861"
     inkscape:cy="77.49723"
     inkscape:document-units="mm"
     inkscape:current-layer="layer1"
     showgrid="false"
     inkscape:window-width="1920"
     inkscape:window-height="1017"
     inkscape:window-x="-8"
     inkscape:window-y="-8"
     inkscape:window-maximized="1" />
  <metadata
     id="metadata5">
    <rdf:RDF>
      <cc:Work
         rdf:about="">
        <dc:format>image/svg+xml</dc:format>
        <dc:type
           rdf:resource="http://purl.org/dc/dcmitype/StillImage" />
        <dc:title></dc:title>
      </cc:Work>
    </rdf:RDF>
  </metadata>
  <g
     inkscape:label="Livello 1"
     inkscape:groupmode="layer"
     id="layer1"
     transform="translate(58.352678,-325.02792)">
    <path
       style="fill:#000000;stroke-width:1"
       d="m -58.352678,333.87044 v -6.75307 h 0.883572 c 0.687597,0 0.950955,-0.14789 1.187373,-0.66677 0.358772,-0.78742 1.004839,-1.06873 3.037884,-1.32274 2.235068,-0.27925 3.736332,0.0253 4.591642,0.93152 0.71475,0.75728 0.72466,0.75927 1.101214,0.22166 0.836574,-1.19437 2.713661,-1.52244 5.717703,-0.99931 1.365531,0.2378 1.6824,0.4006 2.059888,1.05833 0.339934,0.5923 0.637963,0.77731 1.252169,0.77731 h 0.806056 v 6.75307 6.75306 l -2.106475,-0.17567 c -1.158561,-0.0966 -3.152858,-0.16651 -4.431771,-0.15531 -2.963645,0.026 -4.398094,0.0247 -7.361611,-0.006 -1.314765,-0.0138 -3.368593,0.0564 -4.564063,0.15615 l -2.173581,0.18127 z m 8.268229,5.89157 c 0.545704,0.0326 1.527969,0.0594 2.182813,0.0594 0.654844,0 1.637109,-0.0267 2.182813,-0.0594 0.545703,-0.0327 2.510234,0.0403 4.365625,0.16211 l 3.373437,0.22148 v -6.38182 -6.38183 h -0.714375 c -0.555625,0 -0.643819,0.0706 -0.396875,0.3175 0.227145,0.22715 0.3175,1.92737 0.3175,5.97442 v 5.65692 l -3.638021,-0.19524 c -2.000911,-0.10739 -3.786849,-0.16658 -3.96875,-0.13154 -0.430259,0.0829 -2.615806,0.0824 -3.042708,-6.3e-4 -0.181901,-0.0354 -2.03564,0.023 -4.119419,0.12977 l -3.78869,0.19412 0.08452,-5.97292 c 0.06576,-4.64712 0.01111,-5.97285 -0.246206,-5.97265 -0.255435,1.9e-4 -0.330729,1.45314 -0.330729,6.38208 v 6.38182 l 3.373437,-0.22148 c 1.855391,-0.12182 3.819922,-0.19477 4.365625,-0.16211 z m 0.396875,-1.16954 c 1.590268,0.14692 1.78748,-0.16065 0.736239,-1.14824 -0.761656,-0.71554 -2.50502,-0.96415 -4.773502,-0.68072 -1.293785,0.16165 -1.552569,0.29435 -1.997758,1.02447 -0.281291,0.46132 -0.511883,0.90236 -0.512427,0.98009 -5.56e-4,0.0777 1.15987,0.0411 2.578698,-0.0813 1.418828,-0.12244 3.204766,-0.16487 3.96875,-0.0943 z m 9.717656,-0.63837 c -0.50253,-0.97178 -1.239239,-1.17944 -4.184314,-1.17944 -2.233712,0 -2.366499,0.0331 -2.976563,0.74236 -0.351202,0.4083 -0.638549,0.84349 -0.638549,0.9671 0,0.1236 0.684609,0.16964 1.521354,0.1023 0.836745,-0.0673 2.592917,-0.02 3.902604,0.10522 1.309688,0.12521 2.470111,0.18484 2.578718,0.13251 0.108607,-0.0523 0.01714,-0.44385 -0.20325,-0.87005 z m -15.797293,-6.28857 c -0.07089,-4.87407 -0.07857,-4.93288 -0.534946,-4.09828 -0.394642,0.72171 -0.462875,1.58134 -0.462032,5.82083 l 9.79e-4,4.97408 0.533957,-0.87579 c 0.493056,-0.80871 0.528448,-1.25459 0.462032,-5.82084 z m 16.007228,-4.2071 c -0.458983,-0.7012 -0.470282,-0.61724 -0.543063,4.03548 -0.06403,4.09303 -0.009,4.89723 0.396875,5.80247 l 0.471202,1.05088 0.07186,-5.08637 c 0.06355,-4.49824 0.01766,-5.16916 -0.396874,-5.80246 z m -8.805093,-0.60935 c -0.540151,-1.00928 -1.781254,-1.40005 -3.953576,-1.24482 -3.200716,0.22871 -2.945567,-0.28023 -2.862955,5.71071 l 0.07164,5.19511 0.926042,-0.13229 c 1.980498,-0.28293 4.662322,-0.13107 5.31234,0.30082 l 0.640785,0.42575 0.07201,-4.86764 c 0.04497,-3.03995 -0.03248,-5.06289 -0.206281,-5.38764 z m 4.367607,9.28146 c 0.727604,0.003 1.828932,0.1036 2.447396,0.22324 l 1.124479,0.21754 v -5.22784 c 0,-5.99695 0.239747,-5.50202 -2.778125,-5.7351 -2.235888,-0.17268 -3.699264,0.31994 -4.102725,1.38112 -0.144595,0.38032 -0.2629,2.82104 -0.2629,5.42382 v 4.73234 l 1.124479,-0.51042 c 0.640327,-0.29065 1.69407,-0.50796 2.447396,-0.5047 z"
       id="path5043"
       inkscape:connector-curvature="0" />
  </g>
</svg>
