<?xml version="1.0" encoding="UTF-8" standalone="no"?>
<!-- Created with Inkscape (http://www.inkscape.org/) -->

<svg
   xmlns:dc="http://purl.org/dc/elements/1.1/"
   xmlns:cc="http://creativecommons.org/ns#"
   xmlns:rdf="http://www.w3.org/1999/02/22-rdf-syntax-ns#"
   xmlns:svg="http://www.w3.org/2000/svg"
   xmlns="http://www.w3.org/2000/svg"
   xmlns:sodipodi="http://sodipodi.sourceforge.net/DTD/sodipodi-0.dtd"
   xmlns:inkscape="http://www.inkscape.org/namespaces/inkscape"
   width="136.52568mm"
   height="241.63608mm"
   viewBox="0 0 136.52568 241.63608"
   version="1.1"
   id="svg8"
   inkscape:version="0.92.1 r15371"
   sodipodi:docname="child.svg">
  <defs
     id="defs2" />
  <sodipodi:namedview
     id="base"
     pagecolor="#ffffff"
     bordercolor="#666666"
     borderopacity="1.0"
     inkscape:pageopacity="0.0"
     inkscape:pageshadow="2"
     inkscape:zoom="0.35"
     inkscape:cx="506.28587"
     inkscape:cy="633.99011"
     inkscape:document-units="mm"
     inkscape:current-layer="layer1"
     showgrid="false"
     inkscape:window-width="1920"
     inkscape:window-height="1017"
     inkscape:window-x="-8"
     inkscape:window-y="-8"
     inkscape:window-maximized="1" />
  <metadata
     id="metadata5">
    <rdf:RDF>
      <cc:Work
         rdf:about="">
        <dc:format>image/svg+xml</dc:format>
        <dc:type
           rdf:resource="http://purl.org/dc/dcmitype/StillImage" />
        <dc:title></dc:title>
      </cc:Work>
    </rdf:RDF>
  </metadata>
  <g
     inkscape:label="Livello 1"
     inkscape:groupmode="layer"
     id="layer1"
     transform="translate(169.10659,-74.940472)">
    <path
       style="fill:#bdbdbd;stroke-width:0.26458332;fill-opacity:1"
       d="m -163.4654,316.52219 c -0.13781,-0.0934 -0.24623,-0.76512 -0.24094,-1.49273 l 0.01,-1.32291 -1.44814,-0.0869 c -0.79648,-0.0478 -2.01369,-0.0953 -2.70491,-0.10552 l -1.25677,-0.0186 v -16.62938 c 0,-14.60529 0.0483,-16.62938 0.39687,-16.62938 0.21829,0 0.39688,-0.1786 0.39688,-0.39688 0,-0.21828 -0.17859,-0.39687 -0.39688,-0.39687 -0.30746,0 -0.39687,-0.34806 -0.39687,-1.54503 0,-1.39128 0.0658,-1.57503 0.66146,-1.84642 0.83302,-0.37955 0.83302,-0.66853 0,-1.32378 -0.62514,-0.49174 -0.66146,-0.66263 -0.66146,-3.11249 0,-2.12826 0.0592,-2.51469 0.33073,-2.15921 0.1819,0.23813 0.67674,0.51658 1.09965,0.61879 l 0.76892,0.18582 -0.16478,-1.20218 c -0.15587,-1.13717 -0.34098,-1.66438 -1.53551,-4.3731 -0.27446,-0.62236 -0.49363,-1.51533 -0.48705,-1.98438 l 0.012,-0.85282 0.637,1.19063 c 0.35035,0.65484 0.95573,2.14312 1.34528,3.30729 0.6443,1.92549 1.25839,3.04249 1.67284,3.04284 0.0866,7e-5 0.1287,-1.33951 0.0936,-2.97685 -0.0554,-2.58259 0.13572,-5.08118 0.53117,-6.94516 0.0617,-0.29104 0.27951,-0.52916 0.48392,-0.52916 0.51416,0 0.56946,3.58425 0.0768,4.98047 -0.35355,1.00207 -0.52093,5.22808 -0.21903,5.52999 0.30756,0.30756 1.12252,-0.12999 1.40763,-0.75575 0.42943,-0.9425 0.37072,-1.33089 -0.29493,-1.95104 -0.50272,-0.46835 -0.53258,-0.58874 -0.19844,-0.8 0.21634,-0.13679 0.52371,-0.25052 0.68306,-0.25275 0.574,-0.008 1.23285,-1.03265 1.1025,-1.71457 -0.0984,-0.5147 -0.0187,-0.67073 0.34268,-0.67073 0.69201,0 1.57344,-1.61318 1.63333,-2.98932 l 0.0519,-1.19243 0.88641,0.14384 c 0.6595,0.10703 1.09063,-0.007 1.68417,-0.44596 1.17504,-0.86875 1.21613,-0.47383 0.0933,0.89648 -0.72691,0.8871 -0.95334,1.37852 -0.86004,1.86658 0.0769,0.40198 0.005,0.66248 -0.18331,0.66248 -0.49755,0 -1.9275,1.53549 -2.11106,2.26687 -0.16888,0.67286 0.37979,1.7288 1.29142,2.48538 0.66793,0.55433 0.47177,0.87356 -0.45067,0.73342 -1.73296,-0.26329 -2.34231,0.77858 -1.12448,1.92266 0.3638,0.34178 0.66146,0.8818 0.66146,1.20006 0,0.47491 -0.11886,0.55592 -0.66298,0.45191 -1.3069,-0.24983 -1.99741,1.1517 -0.85838,1.74228 1.30383,0.67601 1.81024,0.51626 2.81681,-0.88855 0.52443,-0.73193 1.29163,-1.65996 1.7049,-2.06229 0.52185,-0.50805 0.69228,-0.86938 0.55789,-1.18278 -0.3753,-0.8752 -0.47118,-1.99204 -0.15421,-1.79614 0.16507,0.10202 0.30013,0.35706 0.30013,0.56675 0,0.2097 0.0992,0.38126 0.22049,0.38126 0.47067,0 0.53802,-0.35774 0.16705,-0.88738 -0.41111,-0.58693 -0.52384,-1.49387 -0.18569,-1.49387 0.11101,0 0.31937,0.2672 0.46302,0.59377 0.37979,0.86343 1.06939,0.8705 1.99883,0.0205 0.44897,-0.4106 1.11638,-1.02053 1.48312,-1.3554 0.36674,-0.33486 0.78724,-0.56869 0.93445,-0.51962 0.14722,0.0491 -0.40142,0.66084 -1.2192,1.35949 -0.81777,0.69865 -1.59618,1.47453 -1.72979,1.72419 -0.16879,0.31537 -0.009,1.16745 0.52304,2.79158 0.42129,1.2857 0.90212,3.2687 1.06851,4.40664 0.28219,1.9299 0.79651,3.21546 1.14643,2.86555 0.26126,-0.26126 0.91702,-6.7803 0.94286,-9.37315 0.0107,-1.0721 0.0947,-1.46275 0.25889,-1.20326 0.13369,0.21133 0.20084,0.45259 0.14922,0.53611 -0.0516,0.0835 0.0613,0.81938 0.25095,1.63521 0.18965,0.81584 0.30369,1.88427 0.25344,2.3743 -0.27117,2.64415 -0.44934,3.82854 -0.6588,4.37949 -0.14722,0.38723 -0.13556,0.61254 0.0317,0.61254 0.14552,0 0.38548,-0.31799 0.53324,-0.70663 0.54582,-1.43561 3.62222,-5.10874 4.2823,-5.11294 0.38841,-0.002 0.1885,0.445 -0.47891,1.072 -1.03201,0.96952 -3.55193,4.92578 -3.74165,5.87434 l -0.16808,0.8404 1.03677,-0.82784 c 0.57022,-0.4553 1.51302,-1.25501 2.0951,-1.77712 0.58209,-0.52212 1.14938,-0.94939 1.26066,-0.94951 0.35828,-2.6e-4 1.25088,-1.69873 1.25162,-2.38145 3.9e-4,-0.3638 -0.30213,-1.88789 -0.67226,-3.38686 -0.54339,-2.20067 -0.67821,-3.42324 -0.70025,-6.35 l -0.0273,-3.6246 1.05843,-2.51354 c 0.93284,-2.21527 1.33113,-3.39714 2.50881,-7.44448 0.15399,-0.52921 0.20136,-1.42218 0.10529,-1.98438 -0.0961,-0.5622 -0.22565,-1.37937 -0.28793,-1.81593 -0.47872,-3.35539 -0.48202,-3.36383 -1.5222,-3.90356 -1.16493,-0.60445 -1.21239,-0.75255 -1.46164,-4.56007 -0.15316,-2.33975 -0.27191,-2.92297 -0.60825,-2.98727 -0.28733,-0.0549 -0.51737,0.25199 -0.73614,0.98219 -0.19999,0.66751 -0.65748,1.32086 -1.23141,1.75862 l -0.9132,0.69653 -1.39337,-0.47837 c -0.76635,-0.26311 -1.50648,-0.57342 -1.64472,-0.68958 -0.38014,-0.31941 -1.52146,-0.23636 -2.24272,0.16319 -0.73679,0.40816 -1.67706,0.21707 -3.02201,-0.61416 -1.11442,-0.68874 -1.62767,-1.66698 -1.62767,-3.10229 0,-1.03492 0.12747,-1.26307 1.32292,-2.36789 0.72761,-0.67244 1.6102,-1.33409 1.96131,-1.47033 0.4852,-0.18827 0.56457,-0.32155 0.33073,-0.55539 -0.16921,-0.16921 -0.30766,-0.42673 -0.30766,-0.57225 0,-0.14699 0.14111,-0.12347 0.3175,0.0529 0.54659,0.54659 1.00563,0.35862 1.00151,-0.41011 -0.007,-1.25594 -0.55732,-1.98395 -1.55763,-2.05957 -0.49505,-0.0374 -1.00698,-0.25905 -1.13763,-0.49251 -0.14294,-0.25543 -0.58421,-0.42448 -1.10797,-0.42448 -0.66485,0 -0.93957,-0.15175 -1.16317,-0.6425 -0.18621,-0.40869 -0.55718,-0.67348 -1.01937,-0.72761 -0.57909,-0.0678 -0.77454,-0.27123 -0.96265,-1.00185 -0.12981,-0.50421 -0.45,-1.06662 -0.71153,-1.24981 -0.30973,-0.21694 -0.53925,-0.84315 -0.65831,-1.79611 -0.18059,-1.44535 -0.19834,-1.46974 -1.46764,-2.01577 -0.70666,-0.304 -1.34915,-0.72032 -1.42776,-0.92516 -0.18099,-0.47167 -0.052,-0.46725 0.91195,0.0312 1.0953,0.5664 0.97234,0.0566 -0.21157,-0.87721 -1.32506,-1.04512 -2.9066,-1.8706 -3.96393,-2.06896 -0.49915,-0.0936 -0.86472,-0.32263 -0.86472,-0.54164 0,-0.75137 2.80473,0.0939 4.49501,1.3547 0.57586,0.42954 0.96124,0.57424 1.02443,0.38465 0.0557,-0.16715 -0.003,-0.37944 -0.12938,-0.47175 -0.12688,-0.0923 -0.66667,-0.71084 -1.19954,-1.37451 -0.53287,-0.66367 -1.38477,-1.49167 -1.89311,-1.83999 -0.50834,-0.34832 -1.12089,-0.96618 -1.36121,-1.37301 -0.41164,-0.69685 -0.40958,-0.7397 0.0355,-0.7397 0.25985,0 1.47475,0.98227 2.69978,2.18281 1.88533,1.84766 2.09766,1.99693 1.38286,0.97217 -0.46445,-0.66585 -1.17927,-1.57721 -1.58847,-2.02523 -0.86031,-0.94192 -1.15891,-1.58177 -0.83236,-1.78359 0.47704,-0.29483 1.06473,0.22079 2.22827,1.95502 0.66071,0.98476 1.38491,1.94287 1.60934,2.12913 0.35451,0.29422 0.40805,0.21662 0.40805,-0.59148 0,-0.92446 0.68944,-1.60735 0.92494,-0.91614 0.11466,0.33656 0.3464,2.51588 0.37933,3.56741 0.0289,0.92292 0.39983,0.7166 1.44809,-0.80542 l 0.96472,-1.40073 0.0957,-6.8675 0.0957,-6.86749 0.80251,-2.19775 c 0.44137,-1.20877 1.28647,-2.94058 1.87799,-3.84849 1.39155,-2.13582 1.54629,-3.76088 0.46555,-4.88893 -0.66118,-0.69013 -1.01824,-2.12219 -0.44002,-1.76483 0.38506,0.23798 0.32484,-0.3537 -0.16712,-1.64187 -0.34896,-0.91373 -0.3681,-1.20703 -0.0999,-1.5302 0.18249,-0.2199 0.42854,-0.39981 0.54677,-0.39981 0.11822,0 0.51363,-0.11355 0.87868,-0.25234 0.60565,-0.23027 0.64148,-0.32866 0.40957,-1.12448 -0.1774,-0.60877 -0.15993,-1.05088 0.0579,-1.46406 0.24076,-0.45677 0.23795,-0.83908 -0.0123,-1.67439 -0.27532,-0.91893 -0.26089,-1.17927 0.0955,-1.72318 0.2309,-0.35239 0.57721,-0.64071 0.76958,-0.64071 0.56171,0 1.14375,-0.81525 1.76033,-2.46561 0.31635,-0.84677 0.74216,-1.60365 0.94624,-1.68196 0.20408,-0.0783 0.3716,-0.27847 0.37227,-0.4448 0.002,-0.36956 1.51829,-2.02222 1.85597,-2.02222 0.13358,0 0.17896,-0.16655 0.10084,-0.37011 -0.0781,-0.20356 -0.013,-0.44983 0.14461,-0.54726 0.15764,-0.0974 0.45734,-0.58572 0.66599,-1.0851 0.20865,-0.49937 0.55034,-0.90794 0.75931,-0.90794 0.20897,0 0.5682,-0.28732 0.79829,-0.63847 0.2335,-0.35637 0.80223,-0.7182 1.2872,-0.81892 0.47787,-0.0993 1.33942,-0.55128 1.91455,-1.0045 0.61007,-0.48076 1.49186,-0.88612 2.11667,-0.97305 0.99888,-0.13896 1.06637,-0.20202 1.00263,-0.93672 -0.0376,-0.43324 -0.008,-1.04485 0.0652,-1.35912 0.14292,-0.61161 3.27413,-3.00047 3.93287,-3.00047 0.21742,0 0.77033,0.31556 1.22869,0.70124 0.79877,0.67213 0.86828,0.68442 1.67394,0.29616 1.22887,-0.59221 3.18569,-2.40593 4.12378,-3.82218 0.98417,-1.48582 1.0546,-2.658 0.22252,-3.70336 -1.42559,-1.791 -1.86989,-2.61995 -1.95558,-3.64862 -0.0502,-0.60304 -0.44934,-1.79645 -0.88689,-2.65202 -0.43755,-0.85556 -0.79555,-1.75733 -0.79555,-2.00391 0,-0.2466 -0.15931,-0.58057 -0.35403,-0.74217 -0.62931,-0.52228 -1.31199,-3.2953 -1.12365,-4.56421 0.0947,-0.63794 0.23952,-2.13041 0.32183,-3.31659 0.14842,-2.13873 0.16151,-2.17097 1.57024,-3.86816 0.78132,-0.94129 1.61544,-2.2925 1.8536,-3.00267 0.84807,-2.52884 1.60016,-2.93729 6.8406,-3.71506 0.57134,-0.0848 1.40478,-0.37735 1.85208,-0.65012 0.44731,-0.27276 1.18566,-0.49638 1.64079,-0.49693 0.45512,-5.3e-4 0.97087,-0.17375 1.14611,-0.38489 0.42403,-0.51093 2.35224,-0.78033 3.47517,-0.48552 0.49567,0.13013 1.2584,0.16533 1.69497,0.0782 1.26733,-0.25285 2.72111,0.23256 3.3526,1.11941 0.65244,0.91626 1.93545,1.52386 3.2178,1.52386 0.49437,0 1.18281,0.22205 1.52985,0.49345 0.34705,0.27139 1.22631,0.79511 1.95391,1.16382 0.93714,0.47489 1.51581,1.0046 1.98438,1.81649 0.3638,0.63036 1.370633,1.82454 2.237403,2.65374 1.50603,1.44073 1.58259,1.57706 1.72558,3.07262 0.19104,1.99808 -0.0397,3.10004 -0.82425,3.93622 -0.55723,0.59392 -0.6173,0.87691 -0.55261,2.60322 0.0559,1.49172 -0.0245,2.03389 -0.34963,2.35907 -0.83207,0.83207 -1.00406,0.59553 -0.91685,-1.26087 0.0572,-1.21759 -0.40032,-1.1037 -0.661853,0.16476 -0.0972,0.47127 -0.62455,1.63076 -1.17195,2.57664 -0.5474,0.94589 -1.06335,1.9958 -1.14655,2.33315 -0.17658,0.71595 0.21277,2.00111 0.90959,3.0024 0.26997,0.38793 0.56209,1.06149 0.64915,1.4968 0.13362,0.66808 0.0405,0.86652 -0.59748,1.27293 -1.21065,0.77124 -1.30164,1.09239 -0.73094,2.57962 0.10717,0.27929 -0.0658,0.51788 -0.52804,0.7285 -0.44647,0.20343 -0.68741,0.52385 -0.68741,0.91418 0,0.36576 -0.31066,0.82218 -0.79375,1.16617 -0.61617,0.43876 -0.79375,0.76698 -0.79375,1.46713 0,1.4762 -0.63487,1.70451 -4.36744,1.57059 -1.74525,-0.0626 -3.64627,-0.14665 -4.2245,-0.18673 -1.04348,-0.0723 -1.06009,-0.0585 -2.22952,1.85778 -1.00841,1.65243 -1.14222,2.03297 -0.92851,2.64066 0.20253,0.57589 0.50294,0.76624 1.59027,1.0077 0.73731,0.16373 2.10448,0.66033 3.03816,1.10355 0.93367,0.44322 1.93571,0.88698 2.22675,0.98614 0.4903,0.16705 0.46486,0.2345 -0.34637,0.91833 l -0.87553,0.73804 1.47085,1.25659 c 1.40122,1.1971 1.47084,1.31597 1.47084,2.51098 0,0.99543 0.16387,1.4606 0.79375,2.2532 0.43657,0.54934 0.79375,1.27096 0.79375,1.60358 0,0.33263 0.27997,0.94134 0.62215,1.35268 1.09009,1.31043 1.2854,1.89628 1.09463,3.28336 -0.14693,1.06833 -0.10146,1.32829 0.25639,1.46561 0.2555,0.098 0.67512,-0.0489 1.01686,-0.35602 0.32002,-0.28762 1.13206,-0.89316 1.80454,-1.34565 2.288953,-1.54016 4.920183,-4.80101 6.582773,-8.15794 0.6902,-1.39358 1.84976,-2.69782 3.63076,-4.08376 0.74315,-0.57832 1.9076,-0.82485 3.77732,-0.79971 l 1.98437,0.0267 0.72306,-1.5215 c 1.14918,-2.41816 1.34619,-3.06589 0.87785,-2.88617 -0.21633,0.083 -0.46371,0.0371 -0.54971,-0.10209 -0.086,-0.13916 -0.0584,-0.25303 0.0614,-0.25303 0.11975,0 0.51207,-0.47625 0.87182,-1.05833 0.35975,-0.58208 0.80752,-1.05833 0.99505,-1.05833 0.39728,0 0.85703,-1.07375 0.85703,-2.0016 0,-0.35433 0.1,-0.64424 0.22211,-0.64424 0.3431,0 0.86615,-1.32503 0.65677,-1.6638 -0.11466,-0.18554 -0.31461,-9e-5 -0.52059,0.48284 l -0.33442,0.78409 -0.0119,-0.71199 c -0.007,-0.3916 -0.1186,-0.77792 -0.24897,-0.85849 -0.26516,-0.16387 0.0635,-1.9337 0.42651,-2.2967 0.4246,-0.42461 3.64956,0.67626 4.60552,1.57213 0.49145,0.46057 1.12175,0.83794 1.40067,0.83861 0.27891,8e-4 0.43421,-0.0717 0.34509,-0.16079 -0.0891,-0.0891 0.18949,-0.53559 0.6191,-0.99219 l 0.78112,-0.83017 0.99045,0.566 c 1.09881,0.62791 1.36476,1.39782 0.82879,2.3993 -0.32163,0.60097 -0.43441,0.62736 -1.97544,0.46234 -1.68905,-0.18089 -2.29589,0.0869 -1.73321,0.76491 0.37665,0.45384 0.10079,1.39629 -0.82916,2.8327 -0.89875,1.38822 -1.9663,1.96363 -3.25508,1.75449 -1.01136,-0.16412 -1.46054,0.28654 -1.24178,1.24586 0.10903,0.47812 0.0284,0.44777 -0.56513,-0.2126 -0.38077,-0.42369 -0.73599,-0.72135 -0.7894,-0.66146 -0.29162,0.32703 -2.01685,3.8979 -2.01685,4.17447 0,0.17987 0.38937,0.48973 0.86527,0.68857 1.26245,0.52748 1.87299,1.30278 1.70753,2.16831 -0.0986,0.51582 0.0547,0.97636 0.53455,1.60542 l 0.67281,0.88211 -0.58086,0.6183 c -0.41502,0.44177 -0.534,0.80506 -0.41671,1.27238 0.11968,0.47684 -0.02,0.87295 -0.51546,1.46177 -0.3738,0.44423 -0.68145,1.02863 -0.68368,1.29866 -0.002,0.27004 -0.0915,0.61615 -0.19844,0.76914 -0.30651,0.43862 -2.50104,1.17668 -3.51052,1.18065 -2.16223,0.009 -2.24104,0.10967 -2.72669,3.49945 -0.19705,1.3754 -0.43868,2.18743 -0.67397,2.265 -0.30188,0.0995 -0.33769,-0.28081 -0.20232,-2.14889 0.0909,-1.25458 0.0584,-2.33537 -0.0727,-2.41639 -0.24844,-0.15354 -1.12072,1.96692 -2.28065,5.5441 -1.06372,3.28048 -3.60956,8.27391 -5.02946,9.86482 -0.9978,1.11797 -1.80611,1.66475 -4.033613,2.72853 -3.26478,1.55914 -4.27679,1.72511 -5.70775,0.93612 -0.80798,-0.44549 -1.05225,-0.48916 -1.15571,-0.20662 -0.0722,0.19705 -0.49367,0.70468 -0.9367,1.12806 l -0.8055,0.76978 0.29482,2.57611 c 0.16215,1.41686 0.34328,2.81424 0.40252,3.10528 0.0592,0.29104 0.0111,1.48621 -0.10705,2.65592 -0.19333,1.91464 -0.13571,2.42922 0.57775,5.15938 1.85899,7.11364 1.85611,7.09306 1.94452,13.88054 0.0455,3.4925 0.22551,7.13486 0.40003,8.09413 0.43343,2.3824 0.30116,3.45819 -0.47233,3.84159 -0.98135,0.48642 -1.11965,0.73138 -1.23764,2.1922 -0.0612,0.7575 -0.3055,2.15186 -0.54293,3.09859 -0.35552,1.41759 -0.37389,1.86086 -0.10412,2.51214 0.40916,0.9878 0.18772,3.69811 -0.42783,5.23653 -0.35046,0.87587 -0.40797,1.56615 -0.27333,3.28059 0.0938,1.19422 0.23138,5.62412 0.30575,9.84423 0.11571,6.56503 0.22662,8.60369 0.52899,9.72343 0.0295,0.10914 0.0685,0.32453 0.0867,0.47864 0.058,0.49155 0.49718,0.0156 0.68339,-0.74072 0.21377,-0.86821 1.79716,-3.24033 2.66883,-3.99823 0.33983,-0.29549 1.15512,-1.34791 1.81175,-2.33873 0.65663,-0.99081 1.61888,-2.13605 2.13832,-2.54498 0.51945,-0.40893 0.87206,-0.86063 0.78359,-1.00378 -0.0885,-0.14315 -0.0258,-0.42305 0.13935,-0.622 0.21659,-0.26098 0.21935,-0.4117 0.01,-0.54113 -0.20773,-0.12839 -0.20066,-0.28738 0.0249,-0.55912 0.17332,-0.20884 0.23967,-0.45518 0.14743,-0.54741 -0.29412,-0.29412 0.39905,-0.87785 1.042433,-0.87785 0.38642,0 0.5739,-0.12485 0.49663,-0.33073 -0.1265,-0.33706 1.37907,-1.52135 1.93407,-1.52135 0.16796,0 0.73212,-0.2035 1.25369,-0.45222 0.73404,-0.35004 1.05609,-0.38491 1.4253,-0.15433 0.26234,0.16383 1.0249,0.38004 1.69456,0.48047 0.66967,0.10042 1.43131,0.34683 1.69254,0.54757 0.41362,0.31786 0.36133,0.32705 -0.40499,0.0712 -0.64823,-0.21645 -0.95828,-0.21549 -1.1774,0.004 -0.1636,0.1636 -0.6238,0.29746 -1.02267,0.29746 -0.39887,0 -0.79455,0.11218 -0.87929,0.24929 -0.0847,0.13712 -0.69422,0.3303 -1.3544,0.4293 -0.83444,0.12513 -1.15972,0.28582 -1.06711,0.52714 0.0769,0.2004 -0.25193,0.57437 -0.77789,0.8847 -0.94718,0.55884 -1.14662,0.95679 -0.58036,1.15797 0.1819,0.0646 -0.25803,0.40197 -0.97763,0.74966 -0.903863,0.43671 -1.779573,1.20474 -2.832543,2.48423 -0.83831,1.01865 -1.52947,1.94279 -1.53592,2.05365 -0.006,0.11086 0.49429,0.13586 1.11275,0.0556 0.61847,-0.0803 1.57973,-0.20358 2.13614,-0.27395 1.594063,-0.20162 0.901003,0.30151 -0.93777,0.68077 -2.48315,0.51218 -3.5009,1.11345 -4.12342,2.43605 -2.36186,5.01803 -2.45867,5.29636 -2.01349,5.78828 0.23331,0.25781 0.59161,0.40449 0.79622,0.32598 0.2617,-0.10043 0.37201,0.0642 0.37201,0.55531 0,0.7304 0.64954,1.19609 1.07494,0.77069 0.34281,-0.34281 0.46341,-1.951 0.20146,-2.68642 -0.16578,-0.46542 -0.0637,-0.81553 0.42446,-1.45551 0.35351,-0.46347 0.87774,-1.3909 1.16496,-2.06095 0.28722,-0.67006 0.72566,-1.29635 0.97432,-1.39177 0.32865,-0.12612 0.41094,-0.0662 0.30135,0.21938 -0.0837,0.21823 0.0467,0.5034 0.29347,0.64149 0.38725,0.21672 0.31918,0.36313 -0.5308,1.14169 -0.81201,0.74377 -1.06272,1.24528 -1.49947,2.99954 -0.28844,1.15855 -0.60056,2.36046 -0.6936,2.67091 -0.13259,0.4424 0.0456,0.72829 0.82405,1.32204 0.68495,0.52243 1.02798,0.65332 1.10518,0.42171 0.0616,-0.18473 0.518,-0.8987 1.01429,-1.58662 0.49629,-0.68792 1.0183,-1.51865 1.16002,-1.84607 0.14173,-0.32742 0.37859,-0.59531 0.52635,-0.59531 0.147773,0 -0.10581,0.80367 -0.56351,1.78594 -0.45769,0.98226 -0.94865,2.04579 -1.09102,2.3634 -0.30086,0.6712 -0.0909,1.40941 0.39848,1.40126 0.30879,-0.005 1.924613,-2.02328 1.925963,-2.4055 2.6e-4,-0.0892 0.41729,-0.77914 0.92661,-1.5332 0.83035,-1.2293 3.70614,-3.46397 4.45781,-3.46397 0.75906,0 2.69872,-1.18695 3.4875,-2.13413 1.13032,-1.35731 4.21016,-4.48046 4.41832,-4.48046 0.0838,0 -0.49085,0.69236 -1.27698,1.53857 -2.79564,3.00928 -3.21198,3.51386 -3.0407,3.68514 0.0953,0.0953 0.70527,0.14066 1.35538,0.10068 0.71202,-0.0438 1.18202,0.0405 1.18202,0.21188 0,0.15651 -0.26789,0.28523 -0.59531,0.28604 -1.56322,0.004 -2.53717,0.53224 -3.30307,1.79189 -0.84038,1.38215 -2.45162,5.29007 -2.45162,5.94617 0,0.23015 -0.10064,0.45814 -0.22365,0.50665 -0.12301,0.0485 -0.30343,0.44538 -0.40093,0.88194 -0.18569,0.83139 -0.0445,0.73174 0.81109,-0.57239 0.30237,-0.4609 0.32766,-0.45589 0.4907,0.0972 0.13941,0.47294 0.31063,0.55542 0.90588,0.43636 0.41275,-0.0825 0.81393,-0.0174 0.91665,0.14876 0.4011,0.649 0.65169,-0.0495 0.27741,-0.77328 -0.53612,-1.03677 -0.50373,-2.5546 0.0671,-3.14479 0.25466,-0.26329 1.14046,-0.78422 1.96843,-1.15763 0.82798,-0.3734 1.66029,-0.92691 1.84959,-1.23002 0.18929,-0.30311 0.49412,-0.5511 0.6774,-0.5511 0.18327,0 0.33323,-0.10769 0.33323,-0.2393 0,-0.13162 0.79253,-0.63763 1.76118,-1.12448 1.79858,-0.90398 2.97893,-1.06501 5.5041,-0.75091 1.01859,0.1267 1.05887,0.10089 1.45521,-0.93273 0.79986,-2.08594 1.98325,-3.00506 3.96927,-3.08288 1.33461,-0.0523 1.36054,-0.3551 0.0764,-0.89207 -0.7917,-0.33106 -1.21634,-0.35851 -2.10154,-0.13585 -0.61014,0.15348 -1.17195,0.27905 -1.24846,0.27905 -0.23272,0 0.17595,-0.86648 0.94882,-2.01174 0.87048,-1.2899 2.86485,-2.24085 3.53434,-1.68523 0.21351,0.1772 0.39002,0.45644 0.39225,0.62051 0.002,0.16409 0.11029,0.46616 0.24014,0.67128 0.20067,0.31699 0.36881,0.31924 1.12043,0.015 0.48638,-0.19686 0.97342,-0.48375 1.0823,-0.63753 0.27408,-0.38711 0.014,-1.63282 -0.65191,-3.12241 -0.45769,-1.02381 -0.80649,-1.37754 -1.8915,-1.91822 -0.73168,-0.36462 -1.55099,-0.66294 -1.82069,-0.66294 -0.26969,0 -0.82654,-0.17384 -1.23743,-0.38632 -0.88861,-0.45952 -2.23138,-0.5454 -3.32769,-0.21283 -0.67443,0.20459 -0.7979,0.37882 -0.82139,1.15917 -0.0358,1.18824 -0.52489,2.08582 -1.13661,2.08582 -0.61338,0 -1.79939,-0.9216 -2.00019,-1.55425 -0.0842,-0.26516 -0.44839,-0.61669 -0.80939,-0.78117 -0.82545,-0.37611 -0.93908,-1.77252 -0.16426,-2.01845 0.487,-0.15456 0.55701,-0.81881 0.18425,-1.74825 -0.0984,-0.24536 0.0532,-0.61178 0.37264,-0.9009 0.29617,-0.26803 0.5385,-0.63945 0.5385,-0.82537 0,-0.56134 0.9806,-0.69207 1.84361,-0.24579 0.72671,0.3758 0.82805,0.37722 0.96757,0.0136 0.23348,-0.60844 -0.0752,-1.17871 -0.78394,-1.44817 -1.207,-0.4589 -1.04893,-0.99834 0.50842,-1.73509 0.79794,-0.37748 1.41705,-0.83675 1.3758,-1.0206 -0.0413,-0.18384 0.38509,-0.73853 0.94742,-1.23264 0.93456,-0.82117 1.05076,-0.85964 1.35208,-0.44755 0.40497,0.55382 0.59401,0.56283 1.10425,0.0526 0.68667,-0.68668 2.65289,-0.44087 3.53578,0.44203 0.41248,0.41248 0.92314,0.74997 1.1348,0.74997 0.77258,0 1.00873,0.65747 0.59328,1.65178 -0.30999,0.74191 -0.57785,0.96698 -1.31551,1.10536 -0.50944,0.0956 -1.00032,0.29361 -1.09085,0.44009 -0.0905,0.14648 -0.24491,1.0646 -0.34307,2.04027 -0.18366,1.82555 0.17861,3.99144 0.79105,4.72938 1.01755,1.22608 2.25124,0.92915 1.74225,-0.41933 -0.22308,-0.591 -0.19024,-0.94731 0.15422,-1.6732 0.24071,-0.50726 0.60676,-1.06264 0.81345,-1.23417 0.20669,-0.17154 0.4469,-0.59518 0.5338,-0.94142 0.18688,-0.74456 1.23253,-1.05657 2.64986,-0.79068 0.59595,0.1118 0.94823,0.0753 0.94823,-0.0983 0,-0.54807 0.97621,-0.5681 2.0644,-0.0423 0.61083,0.29512 1.11059,0.65514 1.11059,0.80003 0,0.1449 0.2679,0.19634 0.59532,0.11432 0.94355,-0.23637 1.65364,0.46488 1.65364,1.63305 0,0.84264 0.12158,1.06524 0.74684,1.3674 0.50628,0.24466 0.69562,0.49437 0.58783,0.77526 -0.0883,0.23013 0.0672,0.66074 0.34972,0.96853 0.27979,0.3048 0.58719,1.03598 0.6831,1.62484 0.14351,0.8811 0.0782,1.15771 -0.36895,1.56236 -0.29883,0.27044 -0.54333,0.75633 -0.54333,1.07976 0,0.32343 -0.16426,0.72438 -0.36503,0.89101 -0.55431,0.46003 -2.00442,-0.4431 -2.19674,-1.36815 -0.19717,-0.94839 -0.34262,-1.01874 -1.46529,-0.70876 -1.23503,0.34101 -2.32294,1.45171 -2.32294,2.3716 0,0.3989 -0.18461,0.87849 -0.41025,1.06575 -0.26518,0.22008 -0.38213,0.67518 -0.33073,1.28697 0.0963,1.14626 0.67326,1.34546 1.9326,0.66727 0.74578,-0.40163 0.98016,-0.41921 1.68683,-0.1265 0.74484,0.30852 2.6778,2.58996 2.6778,3.16055 0,0.43368 -0.65087,0.48889 -1.92658,0.16343 -1.57687,-0.40229 -1.8574,-0.0677 -0.73679,0.87877 0.58131,0.49098 0.97728,1.18765 1.30317,2.29278 l 0.46814,1.5875 1.76895,-0.0898 c 0.97292,-0.0494 1.76894,-0.002 1.76894,0.10426 0,0.10672 -0.42007,0.56384 -0.93349,1.01582 -0.51342,0.45199 -1.04095,1.20897 -1.17229,1.68219 -0.20313,0.73182 -0.15939,0.9029 0.2927,1.14485 0.29234,0.15645 0.70531,0.21777 0.91773,0.13625 0.52815,-0.20266 0.7385,0.47012 0.36512,1.16778 -0.41587,0.77706 -0.15227,0.9531 0.64496,0.43073 0.36322,-0.23799 0.82668,-0.43271 1.0299,-0.43271 0.24339,0 0.32961,-0.20867 0.25262,-0.61141 -0.0682,-0.35663 0.0574,-0.75605 0.30139,-0.95853 0.36313,-0.30138 0.44005,-0.23822 0.58351,0.47911 0.16773,0.83865 0.45942,1.04891 0.7663,0.55238 0.47742,-0.77249 -0.39176,-7.45967 -1.16076,-8.93048 -0.29047,-0.55555 -0.0753,-2.17274 0.28904,-2.17274 0.14632,0 0.20987,0.37279 0.14218,0.83402 -0.18043,1.22934 1.54738,6.10987 1.93881,5.47653 0.15553,-0.25165 0.29439,-0.24495 0.62593,0.0302 0.35584,0.29532 0.53727,0.29408 1.10083,-0.008 0.63662,-0.34071 1.90984,-1.83531 1.56346,-1.83531 -0.0886,0 0.14146,-0.3262 0.51115,-0.7249 0.36969,-0.39869 0.67216,-0.81541 0.67216,-0.92604 0,-0.11063 0.12213,-0.20114 0.27138,-0.20114 0.37418,0 -0.4397,1.52512 -1.40507,2.63294 -0.78102,0.89626 -0.61457,1.48903 0.22294,0.79395 0.83514,-0.6931 0.67577,0.0544 -0.25333,1.18821 -1.48073,1.80703 -2.06189,4.0643 -0.6586,2.55805 0.72637,-0.77967 0.91025,-0.54984 0.38019,0.47518 -0.53648,1.03744 -0.19951,1.04805 0.78104,0.0246 0.41825,-0.43656 0.93662,-0.79375 1.15193,-0.79375 0.21531,0 0.3194,-0.0721 0.23132,-0.16016 -0.18042,-0.18039 2.04866,-1.95649 2.45549,-1.95649 0.14426,0 0.2623,-0.11906 0.2623,-0.26458 0,-0.14552 0.17859,-0.26458 0.39687,-0.26458 0.21828,0 0.40465,-0.14883 0.41414,-0.33073 0.0256,-0.49042 2.99578,-2.93329 3.11856,-2.56492 0.057,0.17106 -0.0161,0.38654 -0.16251,0.47885 -1.71472,1.0812 -3.44585,3.29192 -4.15773,5.3096 -0.20495,0.58091 -0.63892,1.41637 -0.96438,1.85657 -0.77058,1.04226 -0.4875,1.2891 0.59467,0.51853 0.57866,-0.41204 0.89198,-0.50748 0.96332,-0.29345 0.12299,0.36896 0.89995,0.42204 1.26549,0.0865 0.13825,-0.12692 0.78714,-0.29899 1.44198,-0.38239 1.0626,-0.13533 1.11892,-0.11763 0.52373,0.16461 -1.0858,0.51489 -1.90291,1.17628 -1.64791,1.33388 0.13068,0.0808 0.94309,-0.0385 1.80537,-0.26493 0.86227,-0.22647 2.16308,-0.46273 2.89069,-0.52502 1.15257,-0.0987 1.25478,-0.0695 0.79375,0.2264 -0.29104,0.18681 -0.92504,0.45872 -1.40889,0.60424 -1.17219,0.35255 -1.07387,0.80801 0.1591,0.73706 l 0.98521,-0.0567 -0.65967,0.50324 -0.65966,0.50325 2.24716,-0.14016 c 2.2559,-0.14071 3.70237,0.14125 3.70237,0.72169 0,0.20556 -0.46879,0.2433 -1.52135,0.12247 -2.19648,-0.25214 -4.84743,0.91304 -3.05353,1.34213 1.09874,0.26282 1.21346,0.38486 0.70871,0.75394 -0.40411,0.29549 -0.28874,0.39041 0.97636,0.80336 1.48538,0.48485 2.09606,0.83678 2.09606,1.20796 0,0.31962 -1.12948,0.20513 -1.5875,-0.16091 -0.50508,-0.40367 -2.38125,-0.74929 -2.38125,-0.43867 0,0.12876 0.29766,0.36972 0.66146,0.53548 0.3638,0.16576 0.66146,0.40316 0.66146,0.52754 0,0.44025 -0.34057,0.55689 -0.84219,0.28843 -0.27941,-0.14954 -0.76977,-0.23464 -1.08969,-0.18913 -0.51388,0.0731 -0.45128,0.17526 0.53717,0.87651 1.20889,0.85765 1.39483,1.18988 0.66711,1.19194 -0.36056,0.001 -0.30025,0.13277 0.27254,0.59532 0.40455,0.3267 0.96053,0.93949 1.23549,1.36177 0.42945,0.65952 0.4475,0.82021 0.12807,1.13965 -0.31944,0.31943 -0.46449,0.30444 -1.02874,-0.10632 -0.36129,-0.263 -0.66062,-0.56749 -0.6652,-0.67663 -0.005,-0.10914 -0.1869,-0.19843 -0.40518,-0.19843 -0.67955,0 -0.50908,1.90378 0.24951,2.78661 0.35552,0.41374 0.57412,0.87874 0.48579,1.03334 -0.0883,0.1546 -0.38674,0.6077 -0.66313,1.00689 -0.27638,0.39918 -0.43394,0.83675 -0.35013,0.97236 0.0838,0.13561 0.0127,0.55314 -0.15803,0.92784 -0.2351,0.51599 -0.23648,0.84356 -0.006,1.35007 0.22491,0.49362 0.22751,0.79243 0.01,1.14083 -0.22515,0.36052 -0.19773,0.65975 0.11603,1.2665 0.68306,1.32089 0.30805,2.92646 -0.9857,4.22021 -1.81776,1.81776 -2.85444,2.09181 -4.81468,1.27277 -0.78994,-0.33006 -1.50164,-0.38956 -3.14117,-0.26259 -3.42788,0.26546 -4.42906,0.38649 -5.69007,0.68788 -1.18502,0.28323 -1.8485,0.25595 -2.69084,-0.11066 -0.42727,-0.18597 -0.88548,-0.15918 -4.39935,0.25715 -1.05589,0.1251 -1.8783,0.093 -2.24896,-0.0878 -1.53061,-0.74648 -2.65839,-0.90572 -4.90989,-0.69325 -3.01831,0.28484 -4.77656,0.30932 -5.64359,0.0786 -0.38981,-0.10373 -1.22188,-0.0733 -1.84907,0.0676 -0.77184,0.17342 -1.51116,0.16284 -2.2879,-0.0327 -0.89995,-0.22661 -1.69609,-0.19552 -3.6897,0.14408 -1.84674,0.31457 -2.80023,0.3625 -3.48566,0.1752 -1.03357,-0.28243 -9.26649,-0.24172 -10.34849,0.0512 -0.40097,0.10854 -1.19589,0.005 -1.96354,-0.25554 -0.77974,-0.26472 -2.38667,-0.47021 -4.0634,-0.51959 -2.619673,-0.0772 -2.857553,-0.039 -4.286903,0.68733 -1.85414,0.94221 -2.21428,0.9527 -3.07736,0.0896 -0.37367,-0.37367 -0.97723,-0.79264 -1.34124,-0.93103 -1.07023,-0.4069 -7.19907,-0.33806 -8.27406,0.0929 -1.00082,0.40126 -5.51214,0.43535 -7.67291,0.058 -0.65485,-0.11437 -5.29828,-0.2377 -10.31875,-0.27408 -5.02047,-0.0364 -9.60438,-0.17506 -10.18646,-0.30817 -0.78131,-0.17867 -1.50849,-0.12676 -2.77813,0.19831 -2.32739,0.59591 -2.64601,0.62556 -5.68854,0.52941 -3.91839,-0.12382 -4.31594,-0.1127 -6.50591,0.18207 -1.89015,0.25442 -3.5571,0.95413 -3.2926,1.38209 0.19257,0.31159 1.22321,0.13971 1.46003,-0.24349 0.16777,-0.27144 0.37683,-0.18181 0.90489,0.38798 0.874,0.94306 0.86507,1.19288 -0.0426,1.19288 -0.40115,0 -1.09958,0.10618 -1.55207,0.23595 -0.45249,0.12978 -0.93547,0.15954 -1.07328,0.0661 z m 2.14651,-0.80422 c 0.28138,-0.11019 0.40044,-0.26382 0.26458,-0.3414 -0.37255,-0.21272 -2.2314,0.0733 -2.2314,0.3433 0,0.28144 1.24634,0.28024 1.96682,-0.002 z m 64.173493,-31.31403 c 1.04808,-2.00813 1.15657,-1.65922 0.39078,1.25677 -0.39973,1.52213 0.5846,0.22808 1.47296,-1.93642 0.45876,-1.11778 1.10271,-2.44905 1.43099,-2.95837 0.69698,-1.08136 1.30703,-2.80185 1.10779,-3.12424 -0.0762,-0.12329 -0.70974,-0.0958 -1.40787,0.061 -1.80771,0.40608 -3.68996,2.32417 -4.94379,5.03793 -0.52567,1.13773 -0.955753,2.16299 -0.955753,2.27835 0,0.11536 0.327423,0.24743 0.727603,0.29347 0.63551,0.0731 0.71676,0.18347 0.64197,0.87179 l -0.0856,0.78806 0.48251,-0.65577 c 0.26538,-0.36068 0.77768,-1.22132 1.13845,-1.91255 z m 49.99967,0.64914 c 0.14429,-0.52256 0.20243,-1.01002 0.1292,-1.08325 -0.27852,-0.27853 -1.43502,1.20085 -1.60536,2.05357 l -0.17817,0.89185 0.696,-0.45603 c 0.39207,-0.2569 0.81055,-0.87093 0.95833,-1.40614 z M -142.9043,284.3378 c 0.19624,-0.87313 0.34903,-1.73633 0.33952,-1.91823 -0.01,-0.1819 -0.0322,-0.98558 -0.0504,-1.78594 -0.04,-1.76105 -0.34814,-1.84701 -1.65966,-0.46302 -1.23915,1.30762 -1.81299,2.19062 -1.81299,2.78975 0,0.44472 0.0378,0.4514 0.41577,0.0734 0.58934,-0.58934 0.98729,-0.53073 0.65187,0.096 -0.15064,0.28147 -0.26765,0.72796 -0.26001,0.99219 0.0121,0.41865 0.0673,0.40388 0.42914,-0.1149 0.63477,-0.90998 0.8799,-0.71957 0.8799,0.6835 0,2.27084 0.51544,2.10039 1.06682,-0.35277 z m 23.91592,-0.46302 c 0.71459,-2.99475 0.88498,-4.46416 0.63537,-5.47927 -0.12671,-0.51528 -0.28358,-1.38872 -0.34861,-1.94096 -0.13325,-1.13167 -0.88609,-2.56779 -1.34608,-2.56779 -0.33482,0 -1.63548,0.94718 -2.17139,1.58128 -0.94352,1.11639 -1.59718,2.39023 -1.77263,3.45446 -0.10717,0.65008 -0.34669,1.55128 -0.53225,2.00266 -0.18557,0.45139 -0.41819,1.34435 -0.51693,1.98438 l -0.17954,1.16367 0.4409,-0.79375 c 0.24249,-0.43656 0.46738,-0.91281 0.49975,-1.05833 0.0324,-0.14552 0.26123,-0.73215 0.50858,-1.30362 0.31279,-0.72265 0.53394,-0.95482 0.72628,-0.76248 0.19234,0.19234 0.0696,0.76812 -0.40295,1.89096 -0.77345,1.83764 -0.88397,2.64431 -0.2143,1.5642 0.66099,-1.0661 0.94216,-0.88999 0.73926,0.46302 -0.21288,1.41955 0.1842,1.59398 0.85837,0.37707 0.24789,-0.44746 0.60838,-1.01301 0.80108,-1.25677 0.31478,-0.3982 0.33745,-0.38275 0.22321,0.1521 -0.0699,0.32742 -0.0331,0.59531 0.0818,0.59531 0.11492,0 0.28236,-0.26789 0.37209,-0.59531 0.27503,-1.00358 0.69659,0.0252 0.54206,1.32292 -0.10069,0.84559 -0.0431,1.12448 0.23215,1.12448 0.23593,0 0.52876,-0.68188 0.82378,-1.91823 z m -9.26096,-0.077 c 0.0928,-0.36975 0.2698,-0.60981 0.39334,-0.53346 0.12354,0.0764 0.29724,-0.22433 0.38601,-0.66818 0.16937,-0.84682 0.69678,-0.83485 0.69678,0.0158 0,1.44722 0.78119,1.62901 0.81154,0.18885 0.0557,-2.64565 2.12753,-6.84151 4.13338,-8.37106 0.65793,-0.50171 1.28681,-1.15655 1.3975,-1.45521 0.20222,-0.54563 -0.27804,-2.31201 -0.79944,-2.94025 -0.50256,-0.60555 -2.36798,0.27961 -2.36798,1.12363 0,0.20029 -0.20836,0.44195 -0.46302,0.53702 -0.66011,0.24641 -2.18281,1.71722 -2.18281,2.10841 0,0.40894 -0.84017,0.87713 -1.574,0.87713 -0.59042,0 -1.43001,1.14873 -1.83712,2.51355 -0.51065,1.71194 -0.89467,5.33889 -0.64468,6.08885 l 0.2497,0.74911 0.34765,-0.83929 c 0.19121,-0.46161 0.45227,-0.83929 0.58013,-0.83929 0.12787,0 0.23248,-0.12756 0.23248,-0.28348 0,-0.15591 0.16797,-0.45145 0.37326,-0.65673 0.20529,-0.20529 0.42711,-0.52421 0.49294,-0.70871 0.0658,-0.1845 0.20107,-0.26046 0.30052,-0.16879 0.0995,0.0917 -0.0664,0.64108 -0.36868,1.22093 -0.58485,1.12205 -0.90323,2.71345 -0.54287,2.71345 0.11915,0 0.29256,-0.30253 0.38537,-0.67228 z m 76.882383,-0.43407 c 0,-0.70348 -0.43675,-0.37734 -0.59362,0.44329 -0.10335,0.54064 -0.059,0.61073 0.23299,0.36839 0.19835,-0.16461 0.36063,-0.52987 0.36063,-0.81168 z m -100.031093,-0.94417 c 0.0261,-0.46423 -0.49544,-0.41346 -0.67948,0.0661 -0.0838,0.21828 -0.0672,0.60524 0.0367,0.8599 0.17349,0.42505 0.20684,0.41962 0.40658,-0.0661 0.11968,-0.29104 0.22596,-0.67799 0.23619,-0.85989 z m 6.96837,-3.02236 1.63753,-1.501 -0.33881,-1.26677 c -0.34706,-1.29763 -0.72683,-1.94893 -1.13638,-1.94893 -0.74818,0 -4.23802,4.22863 -4.88823,5.92306 -0.27574,0.71855 0.47538,0.76078 1.1223,0.0631 1.06421,-1.1477 1.57253,-0.85063 0.62256,0.36384 -0.56299,0.71974 -0.68363,1.32291 -0.26458,1.32291 0.14552,0 0.26602,0.20836 0.26777,0.46302 0.002,0.25466 0.30404,-0.0728 0.67175,-0.7276 0.36771,-0.65485 1.40545,-1.86608 2.30609,-2.69163 z m 12.51601,0.91881 c 0.39131,-2.73869 0.59242,-3.51885 0.90711,-3.51885 0.14507,0 0.19973,0.5403 0.12713,1.25677 -0.11331,1.11815 -0.0972,1.16922 0.14563,0.46302 0.15015,-0.43656 0.30644,-1.03187 0.34732,-1.32291 0.0998,-0.71078 0.73746,-1.98438 0.99347,-1.98438 0.11311,0 0.20632,-0.20836 0.20713,-0.46302 0.003,-0.94016 0.71503,-3.2484 1.14159,-3.70062 0.69694,-0.73887 1.22574,-1.12802 1.5328,-1.12802 0.15623,0 0.35054,-0.17326 0.4318,-0.38501 0.18155,-0.47313 2.86106,-1.28563 3.53471,-1.07182 0.78969,0.25063 0.87423,-0.30272 0.31423,-2.05669 -1.16419,-3.6463 -1.35315,-7.56048 -0.57686,-11.94902 0.4017,-2.27084 0.24035,-5.52909 -0.33486,-6.76247 -0.23754,-0.50932 -0.6199,-1.75458 -0.8497,-2.76724 -0.22979,-1.01267 -0.58172,-2.0247 -0.78205,-2.24896 -0.35034,-0.39219 -0.5152,-1.03211 -0.85487,-3.31817 -0.29618,-1.99334 -0.71211,-1.98262 -1.06018,0.0273 -0.1738,1.00361 -0.32332,2.32214 -0.33226,2.93005 -0.0131,0.89042 -0.16508,1.22477 -0.78173,1.7198 -0.98095,0.78747 -1.37315,2.56287 -1.16732,5.28429 0.18058,2.38775 -0.23582,3.88292 -1.65831,5.95446 -0.9048,1.31764 -0.94028,1.46108 -1.04719,4.23334 -0.16118,4.17982 -0.33008,5.6561 -1.08012,9.44127 -0.37019,1.86824 -0.60793,3.46194 -0.5283,3.54157 0.0796,0.0796 0.44615,-0.0527 0.81449,-0.29403 0.83357,-0.54618 0.86514,-0.23717 0.0648,0.63442 -1.43704,1.565 -1.8918,2.64313 -1.1149,2.64313 0.21828,0 0.39687,-0.0937 0.39687,-0.20828 0,-0.11456 0.22956,-0.22558 0.51014,-0.24671 0.38393,-0.0289 0.24532,0.20082 -0.56018,0.92855 l -1.07033,0.96698 0.12299,1.91649 c 0.0931,1.44988 0.27775,2.1437 0.75862,2.84965 0.3496,0.51323 0.74992,0.89594 0.88961,0.85045 0.13968,-0.0455 0.39109,-1.0424 0.55869,-2.21537 z m 65.810163,1.90874 c 0.0287,-0.14353 -0.15619,-0.30109 -0.41085,-0.35014 -0.28961,-0.0558 -0.46302,0.074 -0.46302,0.34651 0,0.46032 0.78192,0.46356 0.87387,0.004 z m -5.71192,-0.30615 c 0.14739,-0.44217 -0.9812,-1.68185 -1.53115,-1.68185 -0.71055,0 -0.63607,0.50088 0.20502,1.37878 0.70273,0.73349 1.14869,0.83541 1.32613,0.30307 z m -86.592303,-1.4087 c 1.07561,-0.54837 1.47202,-0.50491 1.47202,0.16138 0,0.91516 0.67184,0.0919 0.86494,-1.0599 0.33168,-1.9784 0.12688,-8.173 -0.27462,-8.30637 -0.36628,-0.12168 -2.50121,4.12461 -2.26551,4.50598 0.0752,0.12165 0.43365,0.0266 0.79661,-0.21122 0.94452,-0.61887 0.96449,-0.39592 0.0837,0.93454 -0.45429,0.68622 -0.66485,1.23661 -0.50976,1.33247 0.44461,0.27478 -0.005,0.96801 -1.09645,1.69024 -1.02525,0.67849 -1.20709,0.95208 -0.86208,1.29709 0.28775,0.28775 0.71125,0.20637 1.79117,-0.34421 z m 3.58869,-0.15648 c 0,-0.20969 0.17859,-0.38126 0.39687,-0.38126 0.40035,0 0.4292,-0.0781 0.5093,-1.37917 0.0587,-0.95324 0.39944,-1.2577 0.59039,-0.5275 0.28317,1.08286 0.58478,0.59409 0.49693,-0.80531 -0.14738,-2.34763 -0.4568,-3.88219 -1.17528,-5.8286 -0.88626,-2.40098 -1.3624,-2.62762 -1.12484,-0.53541 0.23489,2.06868 0.2216,8.20231 -0.0201,9.28758 -0.12324,0.55331 -0.099,0.81406 0.0661,0.71199 0.14333,-0.0886 0.2606,-0.33263 0.2606,-0.54232 z m 84.575363,0.26879 c 0.21087,-0.54952 -0.0223,-0.73364 -0.66901,-0.52837 -0.32781,0.10404 -0.47853,0.31871 -0.3885,0.55332 0.1943,0.50636 0.85965,0.49066 1.05751,-0.0249 z m 7.7489,-0.76389 c 0.2508,-0.30219 0.20754,-0.43544 -0.21479,-0.66146 -0.74922,-0.40097 -0.82823,-0.36487 -0.82823,0.37843 0,0.73408 0.54577,0.88218 1.04302,0.28303 z m -12.47039,-1.15108 c 0.17159,-1.73123 -0.87836,-2.4199 -2.10321,-1.37953 l -0.62462,0.53054 1.05833,0.92047 c 0.58208,0.50625 1.1774,0.88341 1.32292,0.83814 0.14552,-0.0453 0.30148,-0.45461 0.34658,-0.90962 z m 7.45863,-0.47049 c 0,-0.20969 -0.11907,-0.38125 -0.26459,-0.38125 -0.14552,0 -0.26458,0.24515 -0.26458,0.54478 0,0.29963 0.11906,0.47119 0.26458,0.38126 0.14552,-0.0899 0.26459,-0.33509 0.26459,-0.54479 z m -93.715423,0.095 c 0.17463,-0.17463 0.31354,-0.68065 0.3087,-1.12448 l -0.009,-0.80698 -0.52037,0.62462 c -0.82081,0.98528 -0.62408,2.15139 0.22047,1.30684 z m 91.673313,-1.48861 c -0.0812,-0.82565 -0.18742,-1.54751 -0.23608,-1.60413 -0.19133,-0.22264 -3.14965,1.23922 -3.20921,1.58585 -0.0699,0.40667 2.76795,1.81617 3.28338,1.63078 0.21134,-0.076 0.2627,-0.58756 0.16191,-1.6125 z m 3.38022,-0.0176 c -0.16412,-0.30667 -0.41327,-0.55757 -0.55367,-0.55757 -0.31947,0 -0.31817,0.0647 0.0191,0.9519 0.19256,0.50647 0.35771,0.63846 0.55367,0.4425 0.19597,-0.19596 0.19026,-0.44558 -0.0191,-0.83683 z m -95.954103,-0.44916 c 0.22892,-0.59656 -0.0185,-0.87519 -0.63427,-0.71418 -0.68603,0.17941 -0.70964,1.13493 -0.0281,1.13493 0.27547,0 0.57352,-0.18934 0.66232,-0.42075 z m -3.27984,-0.63758 c 0,-0.14552 -0.11907,-0.26458 -0.26459,-0.26458 -0.14552,0 -0.26458,0.11906 -0.26458,0.26458 0,0.14552 0.11906,0.26458 0.26458,0.26458 0.14552,0 0.26459,-0.11906 0.26459,-0.26458 z m -0.92605,-3.175 c 0,-0.41313 -0.17092,-0.68713 -0.46382,-0.74354 -0.52374,-0.10086 -0.86433,0.53267 -0.62362,1.15997 0.25235,0.65759 1.08744,0.3378 1.08744,-0.41643 z m 99.086463,-0.11668 c 0,-0.42705 -0.37473,-0.74332 -0.60633,-0.51172 -0.20647,0.20648 0.078,0.89298 0.37005,0.89298 0.12995,0 0.23628,-0.17156 0.23628,-0.38126 z m -3.50022,-0.72668 c -0.16353,-0.4906 -0.73311,-0.57197 -0.73311,-0.10473 0,0.23041 0.18851,0.41892 0.41892,0.41892 0.23041,0 0.37179,-0.14138 0.31419,-0.31419 z m -94.135083,-1.07487 c -0.006,-0.48232 -0.46831,-1.13719 -0.66446,-0.94104 -0.0925,0.0925 -0.0352,0.41644 0.12722,0.71994 0.33388,0.62386 0.54323,0.71002 0.53724,0.2211 z m 98.792473,-3.77031 c -0.0919,-0.43657 -0.44158,-1.41585 -0.77698,-2.1762 -0.6071,-1.37631 -0.61299,-1.38079 -1.32854,-1.00955 -1.25967,0.65352 -1.4222,1.38402 -0.85483,3.84201 l 0.31348,1.3581 0.98228,-0.16596 c 0.66646,-0.11259 1.0496,-0.057 1.19167,0.17285 0.31143,0.50391 0.67631,-1.05557 0.47292,-2.02125 z m 2.63053,-0.96565 c 0.79926,-0.4207 0.98128,-0.77682 0.68244,-1.3352 -0.40938,-0.76495 -1.20602,-0.58442 -1.53067,0.34686 -0.26216,0.75202 -0.20518,1.29253 0.13625,1.29253 0.0737,0 0.39413,-0.13689 0.71198,-0.30419 z m 1.88687,-0.51216 c -0.0852,-0.13784 -0.26766,-0.18092 -0.4055,-0.0957 -0.13784,0.0852 -0.18092,0.26767 -0.0957,0.40551 0.0852,0.13784 0.26767,0.18092 0.40551,0.0957 0.13784,-0.0852 0.18091,-0.26767 0.0957,-0.40551 z m -3.38878,-0.63945 c 0.19062,-0.49673 -0.10001,-1.7192 -0.40872,-1.7192 -0.25402,0 -0.50891,1.32637 -0.34778,1.80975 0.14431,0.43291 0.57543,0.38131 0.7565,-0.0906 z m 1.15379,-1.58691 c 0,-0.21828 -0.11906,-0.39688 -0.26458,-0.39688 -0.14552,0 -0.26459,0.1786 -0.26459,0.39688 0,0.21828 0.11907,0.39687 0.26459,0.39687 0.14552,0 0.26458,-0.17859 0.26458,-0.39687 z m 3.55791,-0.41947 c -0.0852,-0.13784 -0.26767,-0.18092 -0.40551,-0.0957 -0.13784,0.0852 -0.18091,0.26767 -0.0957,0.40551 0.0852,0.13784 0.26766,0.18091 0.4055,0.0957 0.13784,-0.0852 0.18092,-0.26766 0.0957,-0.4055 z m -5.93916,-0.0941 c 0,-0.0642 -0.11906,-0.19026 -0.26458,-0.2802 -0.14552,-0.0899 -0.26458,-0.0374 -0.26458,0.11668 0,0.1541 0.11906,0.28019 0.26458,0.28019 0.14552,0 0.26458,-0.0525 0.26458,-0.11667 z m -7.29482,-0.64668 c 0.0796,-0.12881 0.0188,-0.59545 -0.13512,-1.03699 -0.19896,-0.57073 -0.59957,-0.94015 -1.3859,-1.27796 -0.60831,-0.26135 -1.18419,-0.51529 -1.27972,-0.56432 -0.20842,-0.10696 0.15227,1.59237 0.43513,2.05004 0.18178,0.29413 1.60289,1.02841 2.03805,1.05306 0.10055,0.006 0.24795,-0.095 0.32756,-0.22383 z m -5.66976,-0.82415 c 0,-0.14552 -0.11204,-0.26458 -0.24897,-0.26458 -0.13693,0 -0.32255,0.11906 -0.41249,0.26458 -0.0899,0.14553 0.0221,0.26459 0.24897,0.26459 0.22687,0 0.41249,-0.11906 0.41249,-0.26459 z m 2.11667,-0.62045 c 0,-0.34124 -0.2351,-0.83321 -0.52244,-1.09325 -0.50683,-0.45867 -0.53102,-0.45024 -0.80936,0.28186 -0.23871,0.62786 -0.20912,0.81155 0.17613,1.09325 0.70556,0.51592 1.15567,0.40614 1.15567,-0.28186 z m 2.86267,-2.0849 c -0.0465,-0.32378 -0.38221,-0.73763 -0.74601,-0.91967 -0.56975,-0.28509 -0.67473,-0.2695 -0.7572,0.11249 -0.0934,0.43239 0.82748,1.39587 1.33408,1.39587 0.13952,0 0.21563,-0.26491 0.16913,-0.58869 z m 0.0963,-1.84989 c -0.18986,-0.18985 -0.31309,-0.20547 -0.31309,-0.0397 0,0.35316 0.3129,0.66606 0.48948,0.48948 0.0752,-0.0752 -0.004,-0.27759 -0.17639,-0.44979 z m -3.48809,-1.51456 c 0,-0.13693 -0.11906,-0.32255 -0.26458,-0.41249 -0.14553,-0.0899 -0.26459,0.0221 -0.26459,0.24897 0,0.22687 0.11906,0.41249 0.26459,0.41249 0.14552,0 0.26458,-0.11203 0.26458,-0.24897 z m -77.311253,-21.76436 c 0.3544,-0.3544 0.43579,-1.53459 0.10584,-1.53459 -0.40975,0 -0.84667,0.64173 -0.84667,1.24355 0,0.6731 0.25758,0.77429 0.74083,0.29104 z m 1.53459,-0.89959 c -0.12807,-0.33374 -0.25548,-0.37952 -0.46714,-0.16786 -0.16008,0.16008 -0.2118,0.49755 -0.11495,0.74995 0.12807,0.33375 0.25547,0.37952 0.46714,0.16786 0.16007,-0.16008 0.2118,-0.49755 0.11495,-0.74995 z m 4.60375,-1.95791 c 0,-0.14552 -0.12609,-0.26459 -0.2802,-0.26459 -0.15411,0 -0.20662,0.11907 -0.11668,0.26459 0.0899,0.14552 0.21603,0.26458 0.2802,0.26458 0.0642,0 0.11668,-0.11906 0.11668,-0.26458 z m -3.67936,-2.46227 c -0.20947,-0.20948 -0.28939,-0.14082 -0.28939,0.24859 0,0.69949 0.37,1.07078 0.48783,0.48952 0.05,-0.2468 -0.0393,-0.57895 -0.19844,-0.73811 z m 1.56269,-0.71273 c 0,-0.14552 -0.17859,-0.26459 -0.39688,-0.26459 -0.21828,0 -0.39687,0.11907 -0.39687,0.26459 0,0.14552 0.17859,0.26458 0.39687,0.26458 0.21829,0 0.39688,-0.11906 0.39688,-0.26458 z m 6.11074,-1.89941 c 0.22184,-0.41451 0.25823,-1.88282 0.12951,-5.22552 -0.17879,-4.6426 -0.17796,-4.65244 0.60003,-7.10841 0.51452,-1.62427 1.29861,-3.27893 2.30911,-4.87294 1.24812,-1.96884 1.55141,-2.67127 1.64603,-3.81225 0.1594,-1.92212 -0.0668,-2.65222 -0.88521,-2.85763 -0.38309,-0.0961 -0.91306,-0.56897 -1.21906,-1.0876 -0.29773,-0.50462 -0.62953,-0.91749 -0.73732,-0.91749 -0.29559,0 -0.81008,-1.26198 -0.81008,-1.98703 0,-0.35157 0.23812,-1.24335 0.52917,-1.98172 0.5493,-1.39359 0.7324,-4.34108 0.28678,-4.61649 -1.00466,-0.62092 -2.71897,1.74239 -3.06681,4.22782 -0.60209,4.3021 -1.59541,7.84453 -3.20851,11.44225 -0.34433,0.76797 -0.62605,1.45911 -0.62605,1.53587 0,0.0768 -0.24289,0.67277 -0.53977,1.32444 -0.94422,2.07271 -1.1474,3.90365 -0.65579,5.9097 0.23745,0.96894 0.4391,2.17354 0.44811,2.67688 0.0238,1.33119 -0.55191,3.40189 -1.25595,4.51716 -0.3368,0.53354 -0.53976,1.04268 -0.45101,1.13142 0.28089,0.28089 1.25871,0.17478 1.80023,-0.19536 1.49079,-1.019 4.18512,-0.38049 4.5034,1.06721 0.26632,1.21135 0.35376,1.40618 0.63109,1.40618 0.14496,0 0.40241,-0.25942 0.5721,-0.57649 z m -3.4164,-0.80375 c -0.18986,-0.18986 -0.31309,-0.20548 -0.31309,-0.0397 0,0.35316 0.3129,0.66606 0.48948,0.48948 0.0752,-0.0752 -0.004,-0.27759 -0.17639,-0.44979 z m -1.10684,0.0573 c 0,-0.14552 -0.17859,-0.26458 -0.39688,-0.26458 -0.21828,0 -0.39687,0.11906 -0.39687,0.26458 0,0.14552 0.17859,0.26459 0.39687,0.26459 0.21829,0 0.39688,-0.11907 0.39688,-0.26459 z m 68.357123,-66.57546 c 0.63848,-1.3389 0.32998,-1.45047 -0.34613,-0.12518 -0.30415,0.59619 -0.45357,1.08398 -0.33204,1.08398 0.12153,0 0.4267,-0.43146 0.67817,-0.9588 z m 1.11158,0.56695 c 0.34577,-0.26381 0.41849,-0.45833 0.22253,-0.59532 -0.16008,-0.1119 -0.35904,-0.38205 -0.44213,-0.60033 -0.0927,-0.2435 -0.15915,-0.13614 -0.17197,0.27781 -0.0115,0.37108 -0.16376,0.81756 -0.33838,0.99219 -0.45371,0.4537 0.11357,0.39592 0.72995,-0.0744 z m 6.20213,-1.70005 c 0,-0.1319 -0.23813,-0.17754 -0.52917,-0.10143 -0.29104,0.0761 -0.52916,0.18402 -0.52916,0.23981 0,0.0558 0.23812,0.10143 0.52916,0.10143 0.29104,0 0.52917,-0.10791 0.52917,-0.23981 z m -0.56654,-0.45386 c 0.45239,-0.0905 0.77018,-0.24922 0.70619,-0.35276 -0.1537,-0.24869 -1.69301,-0.0166 -1.8783,0.28319 -0.17122,0.27705 0.0647,0.29105 1.17211,0.0696 z m 0.0374,-1.15841 c 0,-0.14552 -0.0525,-0.26458 -0.11667,-0.26458 -0.0642,0 -0.19027,0.11906 -0.2802,0.26458 -0.0899,0.14552 -0.0374,0.26458 0.11667,0.26458 0.15411,0 0.2802,-0.11906 0.2802,-0.26458 z M -132.0648,137.34604 c 0,-0.13693 -0.11906,-0.24897 -0.26458,-0.24897 -0.14552,0 -0.26458,0.18562 -0.26458,0.41249 0,0.22687 0.11906,0.33891 0.26458,0.24897 0.14552,-0.0899 0.26458,-0.27556 0.26458,-0.41249 z m 32.411463,-2.63022 c 0,-0.19403 -0.14883,-0.40238 -0.33073,-0.46302 -0.196743,-0.0656 -0.330733,0.122 -0.330733,0.46302 0,0.34102 0.13399,0.5286 0.330733,0.46302 0.1819,-0.0606 0.33073,-0.26899 0.33073,-0.46302 z m -27.666583,-9.91304 c -0.18227,-0.18227 -0.34943,-0.14176 -0.51851,0.12567 -0.40142,0.63494 -0.29676,0.82047 0.26495,0.46967 0.35409,-0.22113 0.43584,-0.41306 0.25356,-0.59534 z m 12.30361,-3.2884 c 0.0805,-0.13027 -0.0483,-0.31157 -0.28624,-0.40288 -0.52067,-0.1998 -1.41641,0.0487 -1.41641,0.39298 0,0.31572 1.50823,0.32449 1.70265,0.01 z m -53.96708,194.41198 c -0.19414,-0.6117 0.0454,-1.82304 0.36057,-1.82304 0.11493,0 0.44009,0.17481 0.72256,0.38846 0.50074,0.37874 0.4987,0.38867 -0.0817,0.39688 -0.34904,0.005 -0.59531,0.17259 -0.59531,0.40529 0,0.21828 0.22838,0.39687 0.50752,0.39687 0.80425,0 1.35642,-0.29316 1.17348,-0.62303 -0.0924,-0.16666 0.0436,-0.10388 0.30228,0.1395 0.74988,0.70551 0.33537,1.20612 -1.02123,1.23335 -0.98348,0.0197 -1.22781,-0.0721 -1.36815,-0.51428 z m 13.09454,-0.13365 c -0.25999,-0.68382 -0.14775,-1.16022 0.27335,-1.16022 0.12681,0 0.26862,0.26789 0.31512,0.59531 0.0731,0.51474 0.2427,0.59531 1.25312,0.59531 1.7548,0 1.64998,0.55994 -0.1135,0.60634 -1.35028,0.0355 -1.49241,-0.0169 -1.72809,-0.63674 z m -3.29124,-0.0969 c -0.37072,-0.40964 -0.4067,-0.60579 -0.16464,-0.89745 0.42077,-0.507 1.11933,-0.66002 1.82366,-0.39947 0.83724,0.30971 0.72279,0.76279 -0.19269,0.76279 -0.42798,0 -0.85172,0.11906 -0.94166,0.26458 -0.0986,0.15955 0.25663,0.26458 0.89481,0.26458 0.58209,0 1.13192,0.11907 1.22186,0.26459 0.0996,0.16109 -0.29227,0.26458 -1.00171,0.26458 -0.82554,0 -1.30354,-0.15282 -1.63963,-0.5242 z m 8.07371,0.19347 c 0.0119,-0.46901 0.56886,-1.12566 1.13505,-1.3383 0.31852,-0.11961 0.79212,0.0555 1.39627,0.51632 1.08353,0.82645 1.04646,0.96912 -0.16177,0.6226 -0.68348,-0.19602 -1.03577,-0.16377 -1.49452,0.13682 -0.73162,0.47937 -0.88591,0.4904 -0.87503,0.0626 z m 14.05486,-0.58159 c -0.18894,-0.71904 -0.1393,-0.82818 0.45327,-0.9965 0.40246,-0.11432 0.8194,-0.062 1.05498,0.13229 0.30637,0.25273 0.41329,0.25072 0.50084,-0.009 0.15834,-0.47043 0.77408,-0.40961 0.96795,0.0956 0.11598,0.30222 0.0496,0.38258 -0.22809,0.27603 -0.21543,-0.0827 -0.72279,0.0224 -1.12748,0.23349 -0.68388,0.35672 -0.69379,0.38392 -0.14047,0.38543 0.95259,0.003 0.6865,0.46226 -0.33675,0.58172 -0.85216,0.0995 -0.95026,0.0396 -1.14425,-0.69866 z m 5.80187,0.50894 c -1.30205,-0.71503 -1.3445,-1.72067 -0.0719,-1.70391 l 0.71199,0.009 -0.62917,0.34878 -0.62917,0.34878 0.6219,0.43559 c 0.34204,0.23958 0.83353,0.43559 1.09219,0.43559 0.25866,0 0.47029,0.11907 0.47029,0.26459 0,0.35915 -0.78624,0.28947 -1.5661,-0.1388 z m -16.01791,-0.35726 c -0.25691,-0.80838 0.12062,-1.03862 1.48015,-0.90266 0.58868,0.0589 1.23189,-0.0331 1.4401,-0.20589 0.20695,-0.17175 0.38984,-0.2084 0.40643,-0.0814 0.19091,1.46072 0.171,1.68605 -0.14891,1.68605 -0.19339,0 -0.33509,-0.20836 -0.31488,-0.46302 0.0286,-0.3598 -0.20363,-0.48066 -1.04152,-0.54213 -0.91005,-0.0668 -1.12065,0.0158 -1.34997,0.52917 l -0.27171,0.60827 z m 7.84055,-0.11631 c -0.62541,-0.66572 -0.724,-0.97513 -0.3107,-0.97513 0.14552,0 0.26458,0.17859 0.26458,0.39687 0,0.21828 0.0498,0.39688 0.11065,0.39688 0.0609,0 0.30386,0.0741 0.53999,0.16475 0.23716,0.091 0.39488,0.0436 0.35237,-0.10584 -0.0423,-0.14882 0.0123,-0.28249 0.12147,-0.29704 0.58342,-0.0778 0.72761,0.0218 0.72761,0.50271 0,0.74462 -1.07479,0.69511 -1.80597,-0.0832 z m 5.37784,0.34778 c -0.0899,-0.14552 0.0221,-0.26458 0.24897,-0.26458 0.22687,0 0.41249,-0.10792 0.41249,-0.23981 0,-0.1319 0.23812,-0.17755 0.52916,-0.10144 0.83296,0.21783 0.6463,0.87042 -0.24896,0.87042 -0.42798,0 -0.85172,-0.11907 -0.94166,-0.26459 z m 5.8788,-0.18771 c -0.34749,-0.3475 -0.50347,-0.36589 -0.82685,-0.0975 -0.21921,0.18193 -0.52284,0.25397 -0.67474,0.16009 -0.33603,-0.20768 -0.34242,-0.41882 -0.0277,-0.91619 0.20887,-0.33009 0.30065,-0.33009 0.70044,0 0.35444,0.29266 0.48562,0.30394 0.57137,0.0491 0.11916,-0.35404 0.84744,-0.46337 0.88121,-0.1323 0.0111,0.10914 0.0601,0.40633 0.10873,0.66041 0.12444,0.64972 -0.22663,0.78218 -0.73246,0.27636 z m 8.80557,-0.30906 c 0,-1.54941 1.17795,-1.61717 1.4843,-0.0854 0.16162,0.80809 0.13161,0.84675 -0.65747,0.84675 -0.73449,0 -0.82683,-0.085 -0.82683,-0.76136 z m -32.80833,0.23219 c 0,-0.14552 0.11907,-0.26458 0.26459,-0.26458 0.14552,0 0.26458,0.11906 0.26458,0.26458 0,0.14552 -0.11906,0.26458 -0.26458,0.26458 -0.14552,0 -0.26459,-0.11906 -0.26459,-0.26458 z m 9.84321,0.0387 c -0.27318,-0.17329 -0.25739,-0.289 0.0774,-0.56682 0.47541,-0.39456 1.11761,0.006 0.8093,0.50503 -0.21093,0.34129 -0.42278,0.35605 -0.88666,0.0618 z m 17.75275,-0.1311 c -0.26409,-0.44553 -1.66679,-0.81737 -1.66679,-0.44185 0,0.1483 -0.11906,0.26963 -0.26459,0.26963 -0.14552,0 -0.26458,-0.23813 -0.26458,-0.52917 0,-0.55511 0.63979,-0.72775 0.93383,-0.25198 0.0956,0.15468 0.57022,0.21378 1.07395,0.13373 0.82424,-0.13099 0.90264,-0.0861 0.90264,0.51656 0,0.71584 -0.37539,0.87509 -0.71446,0.30308 z m 4.0879,0.20429 c -0.10915,-0.11007 -0.19844,-0.41013 -0.19844,-0.66679 0,-0.28091 -0.23698,-0.50248 -0.59531,-0.55664 l -0.59532,-0.09 0.59878,-0.16914 c 0.43634,-0.12327 0.67415,-0.0283 0.87662,0.35002 0.30275,0.56569 0.23485,1.45644 -0.0863,1.13253 z m 3.79595,-0.47791 c -0.23305,-0.2808 -0.21582,-0.39971 0.074,-0.51093 0.43897,-0.16845 0.69408,0.0242 0.69408,0.52413 0,0.45781 -0.38267,0.45123 -0.76811,-0.0132 z m -6.11106,-0.16319 c 0,-0.14552 0.11204,-0.26458 0.24897,-0.26458 0.13693,0 0.32255,0.11906 0.41249,0.26458 0.0899,0.14552 -0.0221,0.26459 -0.24897,0.26459 -0.22687,0 -0.41249,-0.11907 -0.41249,-0.26459 z m 79.171053,-30.21211 c 0.0576,-0.1728 0.2462,-0.36135 0.4191,-0.41898 0.19335,-0.0644 0.25248,0.0565 0.15359,0.31419 -0.18455,0.48094 -0.73143,0.58101 -0.57269,0.10479 z M -169.10654,267.65343 c 0,-0.22687 0.121,-0.3377 0.2689,-0.2463 0.14789,0.0914 0.2004,0.27702 0.11668,0.41249 -0.22682,0.36699 -0.38558,0.29856 -0.38558,-0.16619 z m 0,-9.2256 c 0,-0.95644 0.0893,-1.74062 0.19844,-1.7426 0.10914,-0.002 0.49609,-0.0822 0.85989,-0.17818 0.59391,-0.15673 0.62438,-0.12934 0.29834,0.2682 -0.32556,0.39695 -0.27766,0.44275 0.46302,0.44275 0.86159,0 1.1215,0.43244 0.42138,0.7011 -0.25544,0.098 -0.34647,0.33897 -0.24675,0.65315 0.1045,0.32925 0.0297,0.49784 -0.22102,0.49784 -0.20846,0 -0.69273,0.24676 -1.07616,0.54837 l -0.69714,0.54837 z m 81.056943,-9.01181 c 0.0831,-0.21651 0.23153,-1.00027 0.32988,-1.7417 0.12546,-0.94575 0.25276,-1.24281 0.42656,-0.99541 0.19697,0.28037 0.22605,0.27131 0.14191,-0.0442 -0.0582,-0.21828 -0.43145,-0.55555 -0.82943,-0.74949 -0.50419,-0.24569 -0.69883,-0.5202 -0.64192,-0.90531 0.12828,-0.86803 0.69872,-0.84737 1.20587,0.0437 0.25482,0.44771 0.61588,0.81478 0.80234,0.8157 0.18647,7.9e-4 0.40927,0.1847 0.49511,0.4084 0.0858,0.22371 0.55836,0.57482 1.05004,0.78025 0.81896,0.34219 1.23036,0.92969 0.651,0.92969 -0.13362,0 -0.40846,0.0635 -0.61076,0.14115 -0.2023,0.0776 -0.64666,-0.10069 -0.98746,-0.39627 -0.79148,-0.68644 -1.27509,-0.33774 -1.50231,1.08323 -0.0901,0.56318 -0.28032,1.02397 -0.42281,1.02397 -0.1425,0 -0.1911,-0.17714 -0.10802,-0.39365 z m 32.26745,-10.77035 c -0.43078,-0.73011 -0.81038,-0.99399 -1.78175,-1.23858 -1.26318,-0.31808 -1.42912,-0.82659 -0.26974,-0.82659 0.69854,0 0.81921,-0.24996 0.34811,-0.72106 -0.32717,-0.32718 -0.10751,-2.07119 0.29197,-2.31808 0.28724,-0.17753 1.53449,1.11608 1.75994,1.82534 0.0885,0.2783 0.62293,0.98689 1.18771,1.57466 0.56477,0.58776 1.02686,1.16374 1.02686,1.27994 0,0.11621 -0.33899,0.21129 -0.75331,0.21129 -0.51639,0 -0.83338,0.17941 -1.00786,0.57043 -0.24447,0.54788 -0.27617,0.53375 -0.80193,-0.35735 z m -17.91373,-74.51509 c -0.1999,-0.32344 0.12848,-1.38488 0.3803,-1.22924 0.11892,0.0735 0.29101,0.0126 0.38241,-0.13527 0.0914,-0.1479 0.0535,-0.2689 -0.0843,-0.2689 -0.40261,0 -0.22727,-2.7393 0.19657,-3.07096 0.44582,-0.34886 2.41289,0.0165 2.72408,0.506 0.32566,0.51225 0.23758,1.50663 -0.13345,1.50663 -0.18835,0 -0.87296,0.64906 -1.52136,1.44236 -1.13149,1.38435 -1.65353,1.71981 -1.94428,1.24938 z m 1.17032,-3.84785 c -0.18715,-0.18714 -0.26739,0.0136 -0.25588,0.64017 0.0158,0.8577 0.0322,0.87416 0.27265,0.27265 0.16943,-0.4239 0.16377,-0.73228 -0.0168,-0.91282 z m 11.6336,1.79853 c 0,-0.0832 0.30177,-0.66625 0.67059,-1.2956 0.36883,-0.62935 0.75845,-1.66259 0.86583,-2.29607 0.16393,-0.96708 0.30037,-1.16328 0.85077,-1.22339 0.36053,-0.0394 1.0552,0.17497 1.54371,0.47634 0.7104,0.43825 0.86315,0.67894 0.76309,1.20239 -0.0688,0.35995 -0.022,0.71817 0.10399,0.79604 0.44913,0.27758 0.2197,0.69879 -0.30577,0.56138 -0.33058,-0.0864 -1.25409,0.25546 -2.41789,0.89518 -1.9741,1.08512 -2.07432,1.12782 -2.07432,0.88373 z m 2.10932,-2.48011 c 0.30366,-0.59522 0.4254,-1.11017 0.28323,-1.19804 -0.28213,-0.17437 -0.64852,0.43819 -0.90578,1.51437 -0.24575,1.028 5.3e-4,0.90284 0.62255,-0.31633 z m 1.33026,0.23863 c 0,-0.14264 -0.23604,-0.1101 -0.52917,0.073 -0.29104,0.18176 -0.52916,0.42508 -0.52916,0.54072 0,0.11563 0.23812,0.0828 0.52916,-0.073 0.29105,-0.15576 0.52917,-0.39908 0.52917,-0.54072 z m -0.39687,-0.51761 c 0.0899,-0.14552 0.0374,-0.26458 -0.11668,-0.26458 -0.15411,0 -0.2802,0.11906 -0.2802,0.26458 0,0.14552 0.0525,0.26458 0.11668,0.26458 0.0642,0 0.19026,-0.11906 0.2802,-0.26458 z m -10.71563,-1.39859 c 0,-0.21829 0.18614,-0.46831 0.41365,-0.55561 0.2275,-0.0873 0.3512,-0.25977 0.27487,-0.38326 -0.0763,-0.12349 0.27608,-0.6266 0.7831,-1.11803 0.50703,-0.49143 0.86478,-1.04226 0.79501,-1.22408 -0.3509,-0.91443 1.76121,-0.64252 2.38324,0.30682 0.33876,0.51701 0.3476,0.77179 0.0589,1.6968 -0.22872,0.73284 -0.49154,1.08845 -0.80445,1.08845 -0.25561,0 -0.46474,-0.18733 -0.46474,-0.41628 0,-0.2563 -0.17794,-0.37971 -0.46303,-0.32113 -0.26644,0.0547 -0.43001,0.28763 -0.38527,0.54856 0.061,0.35584 -0.11941,0.45343 -0.83826,0.45343 -0.5038,0 -1.10433,0.0723 -1.33451,0.1606 -0.267,0.10246 -0.41852,0.0169 -0.41852,-0.23627 z m 3.28965,-1.53716 c 0.52945,-0.49404 -0.0456,-0.4526 -0.78686,0.0567 -0.73481,0.50486 -0.74229,0.52676 -0.12154,0.35585 0.3638,-0.10017 0.77259,-0.28583 0.9084,-0.41257 z m -0.5271,-0.64454 c 0.41115,-0.31098 0.43081,-0.38846 0.0985,-0.38846 -0.22827,0 -0.56326,0.17859 -0.74442,0.39687 -0.41906,0.50493 -0.0261,0.49981 0.64588,-0.008 z m 23.57479,-3.01601 c -0.0837,-0.13547 -0.0364,-0.31788 0.10512,-0.40535 0.14154,-0.0875 0.19017,-0.33409 0.10808,-0.54804 -0.22673,-0.59083 0.15559,-1.90141 0.4267,-1.46275 0.16876,0.27306 0.28412,0.22907 0.51099,-0.19484 0.39641,-0.74071 0.37005,-0.85984 -0.14638,-0.66166 -0.35872,0.13765 -0.40797,0.0511 -0.2682,-0.47133 0.0942,-0.35197 0.17284,-0.72924 0.17482,-0.83838 0.006,-0.32557 1.4571,-0.22472 1.90359,0.13229 0.63941,0.51127 1.07609,2.04949 0.70781,2.49324 -0.25497,0.30723 -0.37616,0.29764 -0.77258,-0.0611 -0.43484,-0.39351 -0.49235,-0.38407 -0.76513,0.12562 -0.22762,0.42533 -0.21733,0.55274 0.0451,0.55824 0.18703,0.004 -0.0767,0.35789 -0.586,0.78663 -1.00381,0.84498 -1.21139,0.92368 -1.44391,0.54745 z m 2.23766,-2.96919 c 0,-0.46946 -0.45714,-0.19576 -0.75128,0.44981 -0.44245,0.97108 -0.38017,1.07887 0.22211,0.38443 0.29105,-0.33558 0.52917,-0.71098 0.52917,-0.83424 z m -13.61256,-7.16941 c -0.0562,-0.1819 -0.16386,-0.86394 -0.23921,-1.51566 -0.0754,-0.65171 -0.25706,-1.22495 -0.4038,-1.27386 -0.50055,-0.16685 0.0304,-0.86743 0.94791,-1.2508 1.06091,-0.44327 1.84148,-0.16811 2.98006,1.05052 0.82501,0.88301 0.54564,1.42181 -1.00527,1.93878 -0.60974,0.20325 -1.2305,0.59729 -1.37947,0.87564 -0.30906,0.5775 -0.74944,0.66329 -0.90022,0.17538 z m 1.35403,-1.66044 c 0.22272,-0.22272 0.32897,-0.59837 0.23701,-0.83799 -0.19339,-0.50398 -0.53476,-0.22779 -0.79886,0.64635 -0.20937,0.69298 -0.008,0.76162 0.56185,0.19164 z m -116.858133,-0.64856 c 0,-0.28769 0.29766,-0.7181 0.66146,-0.95647 0.3638,-0.23837 0.66146,-0.65368 0.66146,-0.92289 0,-0.75454 0.78023,-2.87835 1.44333,-3.92876 0.32805,-0.51967 0.60314,-1.03738 0.6113,-1.15046 0.008,-0.11308 0.26359,-1.02453 0.56761,-2.02544 0.83163,-2.73797 0.79016,-2.92833 -0.63787,-2.92833 -0.65484,0 -1.18628,-0.0893 -1.18098,-0.19844 0.005,-0.10914 0.44119,-0.52586 0.96865,-0.92604 0.86431,-0.65576 1.67234,-0.87953 2.68101,-0.74247 0.49789,0.0677 1.54823,-0.66909 2.05372,-1.44058 0.40232,-0.61401 0.39374,-0.71363 -0.13936,-1.61716 -0.31244,-0.52956 -0.5248,-1.00612 -0.47189,-1.05902 0.0529,-0.0529 0.45503,-0.16796 0.89362,-0.25568 1.11057,-0.22211 2.21528,0.75181 2.44255,2.15337 0.16056,0.99019 0.21986,1.04534 1.16465,1.08318 0.54751,0.0219 1.1676,0.18271 1.37798,0.35731 0.51149,0.4245 0.77763,1.95512 0.4437,2.55181 -0.24487,0.43756 -0.29608,0.41766 -0.59107,-0.22978 -0.42989,-0.94352 -1.77362,-1.27597 -2.29455,-0.5677 -0.33131,0.45046 -0.28606,0.5141 0.50982,0.71712 1.74988,0.44639 2.08817,0.70281 2.71656,2.05914 0.83424,1.8006 0.44887,2.79772 -0.6215,1.60812 -0.48624,-0.5404 -1.96342,-1.61094 -2.90723,-2.10692 -0.74687,-0.39249 -1.44941,0.004 -1.24338,0.70162 0.45283,1.53345 0.46433,1.88087 0.0622,1.88087 -0.2258,0 -0.59348,-0.26116 -0.81705,-0.58035 l -0.40649,-0.58034 -0.63219,0.59391 c -0.34771,0.32666 -1.27287,0.92348 -2.05591,1.32629 -1.38585,0.71289 -1.44596,0.7916 -2.26043,2.95962 -0.46019,1.22499 -0.78081,2.3177 -0.71248,2.42826 0.2128,0.34431 2.25886,-0.95025 2.70891,-1.71395 0.23528,-0.39926 0.65996,-0.72668 0.94373,-0.7276 0.40128,-0.001 0.44538,0.0689 0.19843,0.31583 -0.47339,0.47339 -0.39111,0.66499 0.36731,0.85534 0.56424,0.14162 0.62841,0.23983 0.36448,0.55785 -0.17618,0.21229 -0.57364,0.38919 -0.88325,0.39313 -0.75431,0.01 -3.92731,1.37874 -4.81689,2.07848 -0.88662,0.69741 -1.16998,0.70641 -1.16998,0.0371 z m 5.7877,-8.3636 c 1.13267,-0.56505 4.00416,-3.93013 3.99357,-4.68002 -0.005,-0.32369 -0.31264,-0.81029 -0.68458,-1.08134 -0.89357,-0.65116 -1.29635,-0.24744 -1.1922,1.19499 0.0782,1.08349 0.0721,1.09159 -0.70813,0.93554 -0.86975,-0.17395 -1.2741,0.14675 -2.00508,1.5903 -0.36937,0.72944 -0.60657,2.46053 -0.33714,2.46053 0.0504,0 0.47051,-0.189 0.93356,-0.42 z m -5.7877,2.0075 c 0,-1.79475 0.0746,-3.18863 0.16569,-3.0975 0.20408,0.20408 0.18741,6.0076 -0.0178,6.21285 -0.0813,0.0813 -0.14784,-1.32059 -0.14784,-3.11535 z m 0.0418,-3.96875 c 0,-0.3638 0.06,-0.51263 0.13345,-0.33073 0.0734,0.1819 0.0734,0.47956 0,0.66146 -0.0734,0.1819 -0.13345,0.0331 -0.13345,-0.33073 z m -0.0418,-8.68089 c 0,-0.14208 0.18854,-0.33068 0.41898,-0.41911 0.25769,-0.0989 0.37864,-0.0397 0.3142,0.1536 -0.13184,0.39551 -0.73318,0.61327 -0.73318,0.26551 z m 0.0106,-5.45839 c -0.006,-1.88301 0.13376,-4.12254 0.31019,-4.97674 0.25641,-1.24139 0.25366,-1.59456 -0.0137,-1.75979 -0.23974,-0.14818 -0.3212,-0.97752 -0.28759,-2.92807 0.039,-2.26263 0.11934,-2.74072 0.47672,-2.83628 0.23641,-0.0632 0.78702,-0.72304 1.22358,-1.46628 0.43656,-0.74324 1.3593,-2.004688 2.05052,-2.803206 0.9208,-1.063725 1.25572,-1.670727 1.25284,-2.270583 l -0.004,-0.818729 -0.85596,0.962642 c -0.80166,0.901577 -3.84759,2.748507 -4.10623,2.489861 -0.0645,-0.06454 0.13435,-0.437327 0.44198,-0.828418 0.30763,-0.39109 0.56337,-0.843845 0.56831,-1.006121 0.005,-0.162276 0.23902,-0.771298 0.52019,-1.353381 0.77824,-1.611146 0.69135,-1.867752 -0.412,-1.21676 -1.09237,0.644518 -1.1755,0.661727 -1.1755,0.243359 0,-0.171568 0.41672,-0.693642 0.92604,-1.160163 0.67863,-0.621596 0.92604,-1.068432 0.92604,-1.672433 0,-0.617296 0.11956,-0.824211 0.47625,-0.824211 0.26194,0 0.61301,0.136761 0.78017,0.303914 0.22883,0.228831 0.47069,0.19464 0.97896,-0.138391 0.37127,-0.243268 0.67,-0.528858 0.66384,-0.634644 -0.0164,-0.281547 -1.81319,-1.382963 -2.2561,-1.382963 -0.45682,0 -0.46166,-0.05724 -0.0764,-0.902754 0.24667,-0.541388 0.21584,-0.794746 -0.16803,-1.380606 l -0.47015,-0.717537 -0.8903,1.000497 -0.8903,1.000497 v -0.773464 c 0,-0.514024 0.26624,-1.028542 0.79375,-1.533925 0.85595,-0.820056 1.11803,-2.248958 0.41249,-2.248958 -0.20969,0 -0.45484,0.119062 -0.54478,0.264583 -0.41258,0.667567 -0.66146,0.123157 -0.66146,-1.446904 0,-1.247142 0.0897,-1.683844 0.33073,-1.609599 1.42109,0.437801 1.78594,0.414623 1.78594,-0.113456 0,-0.293814 -0.11907,-0.534207 -0.26459,-0.534207 -0.14552,0 -0.26458,-0.174405 -0.26458,-0.387566 0,-0.213162 -0.25716,-0.525196 -0.57147,-0.69341 -0.71904,-0.384815 -0.32891,-0.63431 1.36522,-0.873084 0.93018,-0.131102 1.37721,-0.05326 2.04358,0.355849 1.00917,0.619562 1.81972,2.278293 1.37509,2.81403 -0.31579,0.380512 -0.0843,0.997088 0.28801,0.767005 0.12679,-0.07836 0.44634,0.08917 0.71011,0.372299 0.26377,0.283126 0.81743,0.553657 1.23036,0.601179 0.70177,0.08077 0.79013,-0.02131 1.35375,-1.563884 0.46971,-1.285565 0.53577,-1.742194 0.2989,-2.066131 -0.23867,-0.326402 -0.45403,-0.358826 -1.0013,-0.150754 -0.5424,0.206218 -0.72976,0.180307 -0.84373,-0.116682 -0.2581,-0.672597 0.12973,-1.162741 1.16559,-1.473093 0.58601,-0.175571 1.06248,-0.505541 1.13601,-0.786717 0.17031,-0.651296 -0.87759,-1.826125 -1.62885,-1.826125 -1.12874,0 -0.30326,-0.491519 1.12523,-0.669996 2.27382,-0.284095 2.96413,-0.02203 3.37683,1.281962 0.33516,1.058965 0.40564,1.11415 1.59791,1.251227 1.43458,0.164935 2.58918,1.065441 2.58918,2.019386 0,0.58552 -0.49527,0.82563 -0.88961,0.431291 -0.10122,-0.101226 -0.32943,-0.218153 -0.50711,-0.259838 -1.81579,-0.425976 -1.64429,-0.593133 -1.66239,1.62023 -0.0181,2.206764 -0.31086,2.824228 -1.00846,2.126625 -0.23937,-0.239368 -0.3839,-0.518242 -0.32118,-0.619719 0.0627,-0.101477 -0.10356,-0.472963 -0.3695,-0.825524 -0.4222,-0.559725 -0.53947,-0.594586 -0.92468,-0.274886 -0.24264,0.201374 -0.67439,0.823292 -0.95944,1.382041 -0.48309,0.946938 -0.49114,1.095845 -0.11852,2.193372 0.4602,1.355503 0.33373,1.920554 -0.45574,2.036171 -0.38178,0.05591 -0.63005,0.363794 -0.78828,0.977531 -0.28478,1.104612 0.047,1.535511 0.81363,1.056736 0.44542,-0.278167 0.66526,-0.274875 1.2128,0.01816 0.51849,0.277487 0.75364,0.287474 1.04648,0.04445 0.20773,-0.172408 0.74419,-0.35985 1.19211,-0.416538 1.64111,-0.207694 1.88969,-0.383224 1.8203,-1.285388 -0.0626,-0.814233 -0.0313,-0.841465 0.93357,-0.811769 0.55099,0.01696 1.23345,0.243474 1.52298,0.505496 0.6385,0.577838 0.83303,0.420362 0.89042,-0.720828 0.0242,-0.48055 0.16229,-0.873727 0.30694,-0.873727 0.51088,0 1.68163,1.123124 2.11241,2.026471 0.3106,0.651349 0.8184,1.096317 1.76279,1.544682 1.42619,0.67711 2.18388,1.715881 1.54127,2.113036 -0.19786,0.122284 -0.64533,0.113758 -0.99437,-0.01895 -0.34904,-0.132706 -0.74593,-0.241284 -0.88198,-0.241284 -0.79796,0 0.48579,1.852329 2.62856,3.79274 0.69131,0.626031 0.82825,0.944541 0.82825,1.926534 0,0.820516 -0.12457,1.224302 -0.41169,1.33448 -0.47066,0.180608 -1.4404,-0.731064 -1.4404,-1.354149 0,-0.729477 -1.05031,-0.435486 -1.8995,0.531686 -1.14223,1.300933 -1.46555,0.87923 -0.93641,-1.221364 0.4588,-1.821337 0.37445,-2.364093 -0.3674,-2.364093 -0.27547,0 -0.59015,-0.02977 -0.69929,-0.06615 -0.10914,-0.03638 -0.22406,0.397978 -0.25537,0.965242 -0.0719,1.30245 -1.29768,3.276085 -1.75234,2.821426 -0.31544,-0.315446 -0.34967,-0.42818 -0.40661,-1.339272 -0.0427,-0.682693 -0.25657,-0.665267 -1.21137,0.09869 -0.70594,0.56484 -0.74179,0.664859 -0.37114,1.035511 0.49305,0.493045 1.17106,2.771943 0.90413,3.038883 -0.10404,0.10403 -0.50742,-0.18925 -0.89641,-0.651756 -0.38898,-0.462503 -1.00374,-0.87846 -1.36612,-0.924351 -0.61162,-0.07745 -0.67125,0.01652 -0.83159,1.310567 -0.095,0.7667 -0.30833,1.55738 -0.47405,1.75707 -0.16573,0.19969 -0.44897,0.87303 -0.62942,1.4963 -0.18046,0.62328 -0.4538,1.17514 -0.60743,1.22635 -0.36925,0.12308 -0.89968,-1.07263 -0.89968,-2.02808 0,-0.41781 -0.0743,-0.95335 -0.16517,-1.19009 -0.14468,-0.37703 -0.21221,-0.3633 -0.54417,0.11065 -0.60263,0.86037 -1.22092,0.70563 -1.0104,-0.25288 0.13018,-0.5927 0.0683,-0.83468 -0.24415,-0.95458 -0.96187,-0.3691 -1.75323,0.17585 -2.93682,2.02236 -0.65159,1.01655 -1.1847,1.89544 -1.1847,1.95308 0,0.0576 0.23723,0.0428 0.52718,-0.0331 0.76356,-0.19967 2.6962,0.14917 3.28996,0.59385 0.7329,0.54888 0.43347,0.66717 -0.85862,0.3392 -0.61899,-0.15712 -1.1974,-0.21372 -1.28534,-0.12577 -0.0879,0.0879 0.27352,0.63963 0.80325,1.22598 0.96828,1.07177 1.39942,2.28518 0.56627,1.59373 -0.21828,-0.18116 -0.39869,-0.2255 -0.40092,-0.0985 -0.002,0.12696 -0.0927,0.0915 -0.20109,-0.0789 -0.10837,-0.17036 -0.52216,-0.39135 -0.91952,-0.49109 -1.12677,-0.2828 -1.1397,0.38164 -0.0461,2.37113 1.19877,2.1809 0.98688,2.64586 -0.74359,1.63174 -0.64531,-0.37818 -1.25248,-0.60843 -1.34925,-0.51165 -0.0968,0.0968 -0.17594,0.89385 -0.17594,1.7713 v 1.59536 l -1.81258,1.73398 c -0.99692,0.9537 -2.00418,2.09117 -2.23837,2.52774 -0.41064,0.76552 -0.42616,0.672 -0.43638,-2.62991 z m 3.05025,-1.64315 c 0.35396,-1.80841 -0.45289,-2.49843 -1.62924,-1.39331 -0.47578,0.44698 -0.63785,0.87883 -0.63785,1.69964 0,0.60522 0.071,1.17137 0.15771,1.25811 0.0867,0.0867 0.56013,-0.0422 1.05198,-0.28663 0.64492,-0.32044 0.93976,-0.67674 1.0574,-1.27781 z m -1.20876,-3.0186 c 0,-0.13693 -0.11906,-0.24897 -0.26458,-0.24897 -0.14552,0 -0.26458,0.18562 -0.26458,0.41249 0,0.22687 0.11906,0.33891 0.26458,0.24897 0.14552,-0.0899 0.26458,-0.27556 0.26458,-0.41249 z m 2.39916,-3.9866 c 0.2237,-0.41799 0.22456,-0.73066 0.003,-1.21618 l -0.29777,-0.65355 -0.83816,0.81945 c -0.81389,0.79573 -0.82329,0.83069 -0.32475,1.20776 0.71438,0.54034 1.10656,0.49796 1.45734,-0.15748 z m -1.7678,-1.57777 c 1.34963,-1.00931 1.58796,-1.27751 1.7423,-1.96064 0.15413,-0.68219 0.5798,-1.1575 0.91979,-1.02704 0.23404,0.0898 0.53009,-0.15611 0.78775,-0.65437 0.37414,-0.72352 0.37405,-0.83701 -0.001,-1.21207 -0.84156,-0.841552 -3.02185,-0.24029 -3.02185,0.83334 0,0.20425 -0.34971,0.81088 -0.77712,1.34805 -0.42742,0.53717 -0.84414,1.30409 -0.92604,1.70428 -0.0819,0.40018 -0.21073,1.02526 -0.28626,1.38906 -0.0755,0.3638 -0.0804,0.66146 -0.0109,0.66146 0.0695,0 0.77754,-0.48693 1.57334,-1.08207 z m 4.22562,-5.951492 c 0.44911,-0.172339 1.68217,-2.438981 1.60724,-2.954462 -0.0264,-0.181901 -0.063,-0.56035 -0.0811,-0.840997 -0.0758,-1.168844 -1.62058,-1.848278 -1.62058,-0.712754 0,0.345984 -0.17859,0.777281 -0.39687,0.958438 -0.21828,0.181158 -0.39688,0.526518 -0.39688,0.767468 0,0.240949 -0.2832,0.851396 -0.62933,1.356548 l -0.62934,0.918457 0.69548,0.309359 c 0.85176,0.378867 0.94633,0.391766 1.45142,0.197943 z m 3.26191,-0.420894 c 0.78893,-0.741163 0.77832,-1.380827 -0.029,-1.748668 -0.47962,-0.218526 -0.70483,-0.212555 -0.89298,0.02367 -0.30126,0.378247 -1.11149,1.949039 -1.11149,2.154848 0,0.391746 1.4954,0.07563 2.03347,-0.429855 z m -7.58972,-1.478641 c 0,-0.111013 0.26325,-0.319373 0.58501,-0.46302 0.32175,-0.143648 0.81433,-0.657319 1.09461,-1.141491 0.46539,-0.803932 0.47318,-0.916743 0.0897,-1.300188 -0.36207,-0.362074 -0.48132,-0.368885 -0.86618,-0.04948 -0.42538,0.353033 -1.43234,2.401184 -1.43234,2.913371 0,0.133456 0.11907,0.242648 0.26459,0.242648 0.14552,0 0.26458,-0.09083 0.26458,-0.201844 z m 13.46933,-1.555511 c 2.00511,-1.040286 1.74083,-1.795102 -0.34788,-0.993591 -0.33754,0.129529 -0.42145,-0.02828 -0.42145,-0.792622 0,-0.930404 -0.0266,-0.955345 -1.05833,-0.994037 -0.58209,-0.02183 -1.20717,-0.05159 -1.38907,-0.06614 -0.1819,-0.01455 -0.29018,0.152135 -0.24062,0.370416 0.0496,0.218281 0.13452,0.907238 0.1888,1.531014 0.0543,0.623776 0.16958,1.248854 0.25623,1.389062 0.28729,0.464844 1.64665,0.264438 3.01232,-0.444097 z m -5.00266,-1.254495 c 0,-0.426422 -0.98754,-0.75634 -1.20598,-0.402895 -0.2306,0.373127 0.12581,0.768911 0.69242,0.768911 0.28246,0 0.51356,-0.164707 0.51356,-0.366016 z m -4.12163,-2.159693 c 0.29503,-1.175502 -0.3383,-1.481586 -1.86477,-0.901224 l -0.72918,0.277233 1.04268,0.640551 c 1.30613,0.802391 1.34583,0.801967 1.55127,-0.01656 z m 6.76746,-0.860957 c 0,-0.116417 -0.13783,-0.349496 -0.30629,-0.517954 -0.23199,-0.231993 -0.21997,-0.410285 0.0496,-0.735038 0.26316,-0.317089 0.70469,-0.406143 1.69535,-0.341943 1.21863,0.07897 1.34714,0.03308 1.42406,-0.508503 0.0751,-0.528575 -0.0292,-0.595313 -0.93017,-0.595313 -1.79599,0 -3.74401,1.489637 -3.33655,2.551448 0.14522,0.378439 1.40405,0.510507 1.40405,0.147303 z m 6.7138,-0.263987 c 0.20919,-0.33848 -0.27608,-0.932709 -0.5988,-0.733254 -0.42477,0.262519 -0.36188,0.944324 0.0871,0.944324 0.2097,0 0.43996,-0.09498 0.51171,-0.21107 z m -13.8616,-3.559243 c -0.005,-0.774602 -0.23061,-1.063912 -1.14026,-1.463955 -0.93225,-0.409987 -1.276,-0.213909 -1.15884,0.661009 0.0664,0.496028 0.33578,0.767687 0.99862,1.007178 1.27951,0.462303 1.30499,0.458302 1.30048,-0.204232 z m 4.25232,-6.085417 c 0.54271,-0.650554 0.67788,-1.521354 0.23615,-1.521354 -0.23424,0 -1.04484,1.53292 -1.04484,1.975877 0,0.302089 0.33419,0.114259 0.80869,-0.454523 z m 87.930233,11.48213 c -1.17683,-1.158722 -1.58846,-1.757839 -1.63595,-2.381097 -0.0349,-0.458042 -0.0179,-0.832803 0.0379,-0.832803 0.0557,0 0.43401,0.502706 0.84062,1.117125 0.69789,1.054584 0.75339,1.085495 0.99138,0.552132 0.13866,-0.310746 0.44995,-0.61673 0.69175,-0.679963 0.45321,-0.118517 0.71273,-1.253878 0.28661,-1.253878 -0.13136,0 -0.35718,-0.221131 -0.50183,-0.491404 -0.38016,-0.710343 0.0392,-1.979059 1.57339,-4.759978 0.72425,-1.312816 1.31682,-2.614394 1.31682,-2.892396 0,-0.425068 1.00316,-1.677835 1.08589,-1.356083 0.0152,0.05893 0.0654,1.535903 0.11176,3.282153 0.0463,1.74625 0.0934,3.387096 0.10474,3.646325 0.0761,1.746086 3.46011,-0.240209 3.46011,-2.030932 0,-0.217393 0.29582,-0.729321 0.65737,-1.137618 0.64833,-0.73214 0.65962,-0.734408 0.81999,-0.164746 0.0894,0.317687 0.56246,0.767357 1.05117,0.999268 0.48872,0.23191 0.95317,0.526165 1.03211,0.653899 0.0789,0.127735 -0.48154,0.595762 -1.24553,1.04006 -0.76399,0.444299 -1.80579,1.162676 -2.31511,1.596395 -0.74245,0.63224 -0.86047,0.854769 -0.59531,1.122443 0.1819,0.183626 0.33073,0.521102 0.33073,0.749947 0,0.799512 1.67467,1.402502 3.89233,1.401488 1.13344,-5.3e-4 2.23939,-0.04654 2.45767,-0.102278 0.21828,-0.05573 0.43489,0.0104 0.48136,0.146966 0.16626,0.488619 -3.72918,1.668037 -6.1283,1.855464 -2.01675,0.157554 -2.40984,0.119265 -2.84818,-0.277428 -0.44625,-0.403847 -0.67254,-0.42235 -1.84772,-0.151085 -0.73656,0.170018 -1.66746,0.309124 -2.06867,0.309124 -0.97829,0 -1.1733,0.254589 -0.64347,0.840046 0.24196,0.267364 0.3812,0.544847 0.30941,0.616632 -0.0718,0.07178 -0.83814,-0.566216 -1.70301,-1.417778 z"
       id="path4496"
       inkscape:connector-curvature="0" />
  </g>
</svg>
