<?xml version="1.0" encoding="UTF-8" standalone="no"?>
<!-- Created with Inkscape (http://www.inkscape.org/) -->

<svg
   xmlns:dc="http://purl.org/dc/elements/1.1/"
   xmlns:cc="http://creativecommons.org/ns#"
   xmlns:rdf="http://www.w3.org/1999/02/22-rdf-syntax-ns#"
   xmlns:svg="http://www.w3.org/2000/svg"
   xmlns="http://www.w3.org/2000/svg"
   xmlns:sodipodi="http://sodipodi.sourceforge.net/DTD/sodipodi-0.dtd"
   xmlns:inkscape="http://www.inkscape.org/namespaces/inkscape"
   width="20.108334mm"
   height="17.727079mm"
   viewBox="0 0 20.108333 17.72708"
   version="1.1"
   id="svg8"
   inkscape:version="0.92.1 r15371"
   sodipodi:docname="domos.svg">
  <defs
     id="defs2" />
  <sodipodi:namedview
     id="base"
     pagecolor="#ffffff"
     bordercolor="#666666"
     borderopacity="1.0"
     inkscape:pageopacity="0.0"
     inkscape:pageshadow="2"
     inkscape:zoom="2.8"
     inkscape:cx="45.188928"
     inkscape:cy="96.041552"
     inkscape:document-units="mm"
     inkscape:current-layer="layer1"
     showgrid="false"
     inkscape:window-width="1920"
     inkscape:window-height="1017"
     inkscape:window-x="-8"
     inkscape:window-y="-8"
     inkscape:window-maximized="1" />
  <metadata
     id="metadata5">
    <rdf:RDF>
      <cc:Work
         rdf:about="">
        <dc:format>image/svg+xml</dc:format>
        <dc:type
           rdf:resource="http://purl.org/dc/dcmitype/StillImage" />
        <dc:title></dc:title>
      </cc:Work>
    </rdf:RDF>
  </metadata>
  <g
     inkscape:label="Livello 1"
     inkscape:groupmode="layer"
     id="layer1"
     transform="translate(-0.82472695,-383.80828)">
    <path
       style="fill:#000000;stroke-width:1"
       d="m 0.82472695,396.9052 v -4.63021 H 1.6184769 c 0.9429295,0 1.050358,-0.53714 0.2645834,-1.32291 -0.2910417,-0.29104 -0.5266246,-0.61847 -0.5235176,-0.72761 0.00311,-0.10914 0.4777835,-0.53245 1.0548366,-0.94068 0.9973323,-0.70557 1.0297668,-0.77189 0.6562543,-1.34195 -0.3784696,-0.57761 -0.3275905,-0.65255 1.3822285,-2.03587 2.8294198,-2.28913 2.6859092,-2.2122 3.221917,-1.72712 0.5841394,0.52864 0.8228644,0.53629 0.8228644,0.0263 0,-0.24694 0.2498842,-0.39687 0.6614584,-0.39687 0.5918313,0 0.6614583,0.10799 0.6614583,1.02593 0,1.42027 0.5820738,1.88335 1.6191638,1.28814 0.423744,-0.2432 0.940808,-0.3768 1.149031,-0.2969 0.208222,0.0799 0.937838,-0.28174 1.621368,-0.80366 1.406238,-1.07374 1.504512,-1.10141 1.960437,-0.55205 0.421975,0.50844 0.79375,0.50844 0.79375,0 0,-0.26459 0.264583,-0.39688 0.79375,-0.39688 0.757151,0 0.793833,0.0519 0.795558,1.12448 0.0016,0.98728 0.114573,1.20127 0.926042,1.7539 1.048215,0.71385 1.16282,1.20147 0.395067,1.68094 -0.437611,0.27329 -0.529167,0.61702 -0.529167,1.98662 v 1.65614 h 0.79375 0.79375 v 4.63021 4.63021 h -0.994689 c -0.702844,0 -1.090124,-0.15282 -1.319961,-0.52084 -0.691678,-1.10756 -2.461211,-1.59406 -7.695844,-2.11586 -3.1425558,-0.31326 -3.7449115,-0.52093 -3.0892341,-1.0651 0.2351024,-0.19512 0.867704,-0.44903 1.405781,-0.56425 0.7081491,-0.15164 0.5399188,-0.17115 -0.6091777,-0.0707 -3.1156444,0.27247 -4.2055423,0.8356 -3.2124287,1.65981 0.1976953,0.16408 1.6394316,0.52914 3.2038583,0.81126 2.6144972,0.47148 3.8450282,0.99699 3.8450282,1.64206 0,0.12297 -2.6193745,0.22358 -5.8208328,0.22358 H 0.82472695 Z m 8.73124985,-2.24896 v -2.11666 h 1.0583332 1.058333 v 2.11666 2.11667 h 2.513542 2.513542 v -3.0344 c 0,-2.49103 0.06628,-3.00898 0.370112,-2.89238 0.881407,0.33822 0.586353,-0.44295 -0.505115,-1.33732 -1.115409,-0.914 -1.187914,-1.05307 -1.187914,-2.27861 0,-1.11458 -0.07484,-1.30521 -0.512403,-1.30521 -0.38105,0 -0.533657,0.21404 -0.595313,0.83494 l -0.08291,0.83495 -0.831944,-0.70265 c -0.457569,-0.38646 -0.96933,-0.70265 -1.137246,-0.70265 -0.530113,0 -5.5924512,3.98527 -5.4189467,4.26601 0.091092,0.14739 0.3321712,0.20407 0.5357331,0.12595 0.3043894,-0.1168 0.3701121,0.42031 0.3701121,3.02467 v 3.1667 h 0.9260417 0.9260416 z m 3.1750002,-0.79375 v -1.32291 h 1.455208 1.455208 v 1.32291 1.32292 h -1.455208 -1.455208 z m -8.7312501,-0.39687 v -1.71979 h 0.9260417 0.9260416 v 1.71979 1.71979 h 0.79375 c 0.6702777,0 0.79375,-0.10289 0.79375,-0.66146 0,-0.41157 -0.1499306,-0.66146 -0.396875,-0.66146 -0.2866318,0 -0.396875,-0.29398 -0.396875,-1.05833 0,-0.76435 0.1102432,-1.05833 0.396875,-1.05833 0.2182813,0 0.396875,-0.12609 0.396875,-0.2802 0,-0.15411 -0.1138319,-0.20985 -0.2529597,-0.12386 -0.1391277,0.086 -0.453413,-0.14959 -0.6984116,-0.52351 -0.4978582,-0.75983 -0.472105,-0.79633 1.4143921,-2.00448 0.6479138,-0.41494 0.8598959,-0.74105 0.8598959,-1.32287 0,-0.50998 -0.1347563,-0.77217 -0.396875,-0.77217 -0.2517413,0 -0.396875,0.25338 -0.396875,0.69286 v 0.69287 l -0.8726768,-0.66563 -0.8726768,-0.66562 -2.1038857,1.57357 c -2.0165933,1.50828 -2.8113921,2.35347 -1.8754047,1.99429 0.3821274,-0.14663 0.4329774,0.12808 0.4329774,2.33909 0,2.49587 0.00247,2.50524 0.6614583,2.50524 0.6377135,0 0.6614583,-0.0617 0.6614583,-1.71979 z m 15.0812501,-3.2074 c 0,-2.23306 0.04877,-2.50546 0.396875,-2.21656 0.321406,0.26674 0.396875,0.25721 0.396875,-0.0501 0,-0.20873 -0.357188,-0.64359 -0.79375,-0.96636 -0.65011,-0.48064 -0.79375,-0.77693 -0.79375,-1.63725 0,-0.87403 -0.08886,-1.05042 -0.529167,-1.05042 -0.392031,0 -0.529167,0.17639 -0.529167,0.68064 v 0.68063 l -0.845612,-0.66179 -0.845613,-0.66179 -1.072617,0.82594 c -0.589939,0.45427 -1.12506,0.86535 -1.189158,0.9135 -0.0641,0.0482 0.08473,0.28883 0.330729,0.53483 0.419973,0.41997 0.447271,0.40344 0.447271,-0.27089 0,-0.64435 0.09516,-0.71815 0.926042,-0.71815 h 0.926042 v 1.44021 c 0,1.18833 0.10284,1.51223 0.588038,1.85208 0.323421,0.22653 0.859202,0.41188 1.190625,0.41188 0.526629,0 0.602587,0.1334 0.602587,1.05833 0,1.02049 -0.218935,1.23265 -1.124479,1.08967 -0.109141,-0.0172 -0.198438,0.26632 -0.198438,0.63012 0,0.59531 0.105833,0.66146 1.058333,0.66146 h 1.058334 z M 5.5112415,386.89286 c 0.5497528,-0.48119 0.6258615,-0.48599 1.247462,-0.0787 0.8161736,0.53478 0.94519,0.53981 0.94519,0.0369 0,-0.24695 0.2498842,-0.39688 0.6614584,-0.39688 0.5291666,0 0.6614583,0.13229 0.6614583,0.66146 0,0.79586 0.1191204,0.81428 0.9646462,0.14919 0.6445906,-0.50703 0.6456916,-0.51523 0.1078786,-0.80305 -0.407829,-0.21827 -0.5433582,-0.55246 -0.5433582,-1.33983 0,-1.21004 -0.702393,-1.511 -0.8423216,-0.36092 l -0.08372,0.6881 -0.7433747,-0.58741 -0.7433743,-0.58742 -0.9764173,0.77295 c -0.5370293,0.42512 -1.4228979,1.12396 -1.9685968,1.55296 -1.006565,0.79132 -1.3191056,1.35895 -0.5953202,1.08121 0.2182813,-0.0838 0.396875,-0.0224 0.396875,0.13638 0,0.29788 0.3804457,0.0651 1.5115146,-0.92492 z"
       id="path6186"
       inkscape:connector-curvature="0" />
  </g>
</svg>
