<?xml version="1.0" encoding="UTF-8" standalone="no"?>
<!-- Created with Inkscape (http://www.inkscape.org/) -->

<svg
   xmlns:dc="http://purl.org/dc/elements/1.1/"
   xmlns:cc="http://creativecommons.org/ns#"
   xmlns:rdf="http://www.w3.org/1999/02/22-rdf-syntax-ns#"
   xmlns:svg="http://www.w3.org/2000/svg"
   xmlns="http://www.w3.org/2000/svg"
   xmlns:sodipodi="http://sodipodi.sourceforge.net/DTD/sodipodi-0.dtd"
   xmlns:inkscape="http://www.inkscape.org/namespaces/inkscape"
   width="16.06815mm"
   height="10.584585mm"
   viewBox="0 0 16.06815 10.584585"
   version="1.1"
   id="svg8"
   inkscape:version="0.92.1 r15371"
   sodipodi:docname="eye_no.svg">
  <defs
     id="defs2" />
  <sodipodi:namedview
     id="base"
     pagecolor="#ffffff"
     bordercolor="#666666"
     borderopacity="1.0"
     inkscape:pageopacity="0.0"
     inkscape:pageshadow="2"
     inkscape:zoom="0.35"
     inkscape:cx="296.29267"
     inkscape:cy="167.68218"
     inkscape:document-units="mm"
     inkscape:current-layer="layer1"
     showgrid="false"
     inkscape:window-width="1920"
     inkscape:window-height="1017"
     inkscape:window-x="-8"
     inkscape:window-y="-8"
     inkscape:window-maximized="1" />
  <metadata
     id="metadata5">
    <rdf:RDF>
      <cc:Work
         rdf:about="">
        <dc:format>image/svg+xml</dc:format>
        <dc:type
           rdf:resource="http://purl.org/dc/dcmitype/StillImage" />
        <dc:title />
      </cc:Work>
    </rdf:RDF>
  </metadata>
  <g
     inkscape:label="Livello 1"
     inkscape:groupmode="layer"
     id="layer1"
     transform="translate(50.106612,-319.64751)">
    <g
       id="g5000">
      <path
         inkscape:connector-curvature="0"
         id="path4979"
         d="m -43.846139,329.46143 c -2.232698,-0.39816 -4.789858,-2.06452 -6.002003,-3.91119 -0.344627,-0.52502 -0.344627,-0.66559 0,-1.19062 0.808971,-1.23244 2.238535,-2.40838 3.868077,-3.18181 2.216713,-1.05213 5.135933,-1.12502 7.567778,-0.18897 1.803328,0.69412 4.373825,3.02499 4.373825,3.96609 0,0.91285 -2.570121,3.27424 -4.246184,3.90134 -1.761054,0.65889 -3.934178,0.89536 -5.561493,0.60516 z m -0.627731,-1.61785 c -0.996117,-0.8746 -1.491219,-2.1336 -1.277889,-3.24956 0.194834,-1.01921 0.600798,-0.56813 0.600798,0.66757 0,0.86315 0.173348,1.24252 0.899583,1.96876 0.784269,0.78427 1.069946,0.89958 2.228606,0.89958 1.123594,0 1.45158,-0.12256 2.121913,-0.79289 1.408973,-1.40897 1.408973,-3.35525 0,-4.76422 -0.663452,-0.66345 -1.002984,-0.79289 -2.07984,-0.79289 -0.707822,0 -1.367947,-0.13106 -1.466944,-0.29124 -0.503742,-0.81507 -3.727376,0.82117 -4.794369,2.4335 l -0.697952,1.05468 0.77454,1.10203 c 0.785915,1.11822 3.115952,2.5802 4.112216,2.5802 0.410172,0 0.329056,-0.15726 -0.420662,-0.81552 z m 1.550996,-0.885 c -0.483711,-0.20933 -0.956005,-0.69386 -1.162675,-1.19281 -0.474965,-1.14667 -0.07798,-1.52708 1.007714,-0.96565 1.238212,0.64031 1.384585,0.51767 0.838344,-0.7024 -0.576014,-1.28657 -0.280018,-1.7176 0.877331,-1.27758 1.480593,0.56292 1.951222,2.40585 0.907553,3.55386 -0.776879,0.85455 -1.46684,1.01796 -2.468267,0.58458 z m 4.550723,1.15589 c 1.320243,-0.63912 3.010773,-2.40844 3.010773,-3.1511 0,-1.16203 -3.224988,-3.71537 -4.687559,-3.71129 -0.383885,0.001 -0.340433,0.11201 0.233153,0.59531 2.005395,1.68972 2.005395,4.52536 0,6.21508 -0.618402,0.52106 -0.642125,0.59416 -0.193192,0.59531 0.281477,7.2e-4 1.018049,-0.24376 1.636825,-0.54331 z"
         style="fill:#000000;stroke-width:1" />
      <rect
         transform="matrix(0.83043406,-0.55711693,-0.55711693,-0.83043406,0,0)"
         y="-247.20276"
         x="-224.27339"
         height="1.1358955"
         width="17.3057"
         id="rect4996"
         style="opacity:1;fill:#ff0000;fill-opacity:1;stroke:none;stroke-width:0.26499999;stroke-linecap:round;stroke-linejoin:round;stroke-miterlimit:4;stroke-dasharray:none;stroke-opacity:1" />
    </g>
  </g>
</svg>
