<?xml version="1.0" encoding="UTF-8" standalone="no"?>
<!-- Created with Inkscape (http://www.inkscape.org/) -->

<svg
   xmlns:dc="http://purl.org/dc/elements/1.1/"
   xmlns:cc="http://creativecommons.org/ns#"
   xmlns:rdf="http://www.w3.org/1999/02/22-rdf-syntax-ns#"
   xmlns:svg="http://www.w3.org/2000/svg"
   xmlns="http://www.w3.org/2000/svg"
   xmlns:sodipodi="http://sodipodi.sourceforge.net/DTD/sodipodi-0.dtd"
   xmlns:inkscape="http://www.inkscape.org/namespaces/inkscape"
   width="5.1749139mm"
   height="17.389236mm"
   viewBox="0 0 5.1749139 17.389237"
   version="1.1"
   id="svg8"
   inkscape:version="0.92.1 r15371"
   sodipodi:docname="nick.svg">
  <defs
     id="defs2" />
  <sodipodi:namedview
     id="base"
     pagecolor="#ffffff"
     bordercolor="#666666"
     borderopacity="1.0"
     inkscape:pageopacity="0.0"
     inkscape:pageshadow="2"
     inkscape:zoom="2.8"
     inkscape:cx="-12.668216"
     inkscape:cy="25.327448"
     inkscape:document-units="mm"
     inkscape:current-layer="layer1"
     showgrid="false"
     inkscape:window-width="1920"
     inkscape:window-height="1017"
     inkscape:window-x="-8"
     inkscape:window-y="-8"
     inkscape:window-maximized="1" />
  <metadata
     id="metadata5">
    <rdf:RDF>
      <cc:Work
         rdf:about="">
        <dc:format>image/svg+xml</dc:format>
        <dc:type
           rdf:resource="http://purl.org/dc/dcmitype/StillImage" />
        <dc:title></dc:title>
      </cc:Work>
    </rdf:RDF>
  </metadata>
  <g
     inkscape:label="Livello 1"
     inkscape:groupmode="layer"
     id="layer1"
     transform="translate(-16.132763,-365.43635)">
    <path
       style="fill:#000000;stroke-width:1"
       d="m 16.96731,382.64031 c -1.43663,-0.61194 0.0445,-1.44064 2.25826,-1.26349 2.62247,0.20986 2.51842,1.29547 -0.13766,1.43623 -0.83891,0.0445 -1.79318,-0.0333 -2.1206,-0.17274 z m 0.99218,-3.57391 c 0,-0.45612 0.15776,-0.56926 0.79375,-0.56926 0.636,0 0.79375,0.11314 0.79375,0.56926 0,0.45611 -0.15775,0.56925 -0.79375,0.56925 -0.63599,0 -0.79375,-0.11314 -0.79375,-0.56925 z m -0.53644,-3.62266 c -0.18748,-1.20519 -0.50067,-2.35105 -0.69597,-2.54635 -0.1953,-0.1953 -0.3564,-0.79307 -0.358,-1.32838 -0.002,-0.53531 -0.0755,-1.41263 -0.16433,-1.94961 -0.15442,-0.93393 -0.12271,-0.98646 0.73051,-1.21001 0.84137,-0.22044 0.90145,-0.19057 1.05971,0.52673 0.21366,0.96841 0.49369,1.25944 0.49369,0.51307 0,-0.76198 0.52133,-0.74134 0.55691,0.022 0.021,0.45083 0.10128,0.36749 0.33073,-0.34336 0.29229,-0.90554 0.33352,-0.92982 1.16809,-0.68784 0.60583,0.17567 0.8296,0.37769 0.74664,0.67409 -0.0652,0.23279 -0.20088,1.19716 -0.30161,2.14305 -0.10073,0.94589 -0.31766,1.80419 -0.48206,1.90734 -0.1644,0.10314 -0.41797,1.11518 -0.56349,2.24895 l -0.26459,2.06142 -0.95767,0.0801 -0.95768,0.0801 z m 0.53644,-8.44788 c 0,-0.13013 0.29766,-0.2366 0.66146,-0.2366 0.86198,0 0.86181,0.3853 -1.9e-4,0.43503 -0.36369,0.021 -0.66127,-0.0683 -0.66127,-0.19843 z m 0.0614,-1.03035 c 0.18175,-0.29104 0.51131,-0.52916 0.73234,-0.52916 0.22104,0 0.55059,0.23812 0.73235,0.52916 0.30988,0.49619 0.26424,0.52917 -0.73235,0.52917 -0.99658,0 -1.04222,-0.033 -0.73234,-0.52917 z"
       id="path6158"
       inkscape:connector-curvature="0" />
  </g>
</svg>
