<?xml version="1.0" encoding="UTF-8" standalone="no"?>
<!-- Created with Inkscape (http://www.inkscape.org/) -->

<svg
   xmlns:dc="http://purl.org/dc/elements/1.1/"
   xmlns:cc="http://creativecommons.org/ns#"
   xmlns:rdf="http://www.w3.org/1999/02/22-rdf-syntax-ns#"
   xmlns:svg="http://www.w3.org/2000/svg"
   xmlns="http://www.w3.org/2000/svg"
   xmlns:sodipodi="http://sodipodi.sourceforge.net/DTD/sodipodi-0.dtd"
   xmlns:inkscape="http://www.inkscape.org/namespaces/inkscape"
   width="4.0319958mm"
   height="13.754454mm"
   viewBox="0 0 4.0319957 13.754454"
   version="1.1"
   id="svg8"
   inkscape:version="0.92.1 r15371"
   sodipodi:docname="phone.svg">
  <defs
     id="defs2" />
  <sodipodi:namedview
     id="base"
     pagecolor="#ffffff"
     bordercolor="#666666"
     borderopacity="1.0"
     inkscape:pageopacity="0.0"
     inkscape:pageshadow="2"
     inkscape:zoom="2.8"
     inkscape:cx="-15.091248"
     inkscape:cy="71.815591"
     inkscape:document-units="mm"
     inkscape:current-layer="layer1"
     showgrid="false"
     inkscape:window-width="1920"
     inkscape:window-height="1017"
     inkscape:window-x="-8"
     inkscape:window-y="-8"
     inkscape:window-maximized="1" />
  <metadata
     id="metadata5">
    <rdf:RDF>
      <cc:Work
         rdf:about="">
        <dc:format>image/svg+xml</dc:format>
        <dc:type
           rdf:resource="http://purl.org/dc/dcmitype/StillImage" />
        <dc:title></dc:title>
      </cc:Work>
    </rdf:RDF>
  </metadata>
  <g
     inkscape:label="Livello 1"
     inkscape:groupmode="layer"
     id="layer1"
     transform="translate(-16.773857,-381.37112)">
    <path
       style="fill:#000000;stroke-width:1"
       d="m 17.921038,394.73716 c -1.04896,-0.73472 -1.47569,-5.83405 -0.867827,-10.37033 0.309463,-2.30942 0.802147,-2.99571 2.150619,-2.99571 1.430054,0 1.683076,0.31297 1.582483,1.95742 -0.07944,1.29858 -0.182649,1.53552 -0.83735,1.92226 -0.996093,0.58841 -1.321005,1.38965 -1.321005,3.25762 0,1.61389 0.194264,1.98271 1.492332,2.83323 0.536822,0.35174 0.624335,0.62337 0.624335,1.93785 0,1.14995 -0.103703,1.56855 -0.418515,1.68936 -0.729267,0.27984 -1.825522,0.17423 -2.405072,-0.2317 z"
       id="path6223"
       inkscape:connector-curvature="0" />
  </g>
</svg>
