<?xml version="1.0" encoding="UTF-8" standalone="no"?>
<!-- Created with Inkscape (http://www.inkscape.org/) -->

<svg
   xmlns:dc="http://purl.org/dc/elements/1.1/"
   xmlns:cc="http://creativecommons.org/ns#"
   xmlns:rdf="http://www.w3.org/1999/02/22-rdf-syntax-ns#"
   xmlns:svg="http://www.w3.org/2000/svg"
   xmlns="http://www.w3.org/2000/svg"
   xmlns:sodipodi="http://sodipodi.sourceforge.net/DTD/sodipodi-0.dtd"
   xmlns:inkscape="http://www.inkscape.org/namespaces/inkscape"
   width="19.918247mm"
   height="18.918489mm"
   viewBox="0 0 19.918247 18.91849"
   version="1.1"
   id="svg8"
   inkscape:version="0.92.1 r15371"
   sodipodi:docname="web.svg">
  <defs
     id="defs2" />
  <sodipodi:namedview
     id="base"
     pagecolor="#ffffff"
     bordercolor="#666666"
     borderopacity="1.0"
     inkscape:pageopacity="0.0"
     inkscape:pageshadow="2"
     inkscape:zoom="2.8"
     inkscape:cx="163.90112"
     inkscape:cy="82.687387"
     inkscape:document-units="mm"
     inkscape:current-layer="layer1"
     showgrid="false"
     inkscape:window-width="1920"
     inkscape:window-height="1017"
     inkscape:window-x="-8"
     inkscape:window-y="-8"
     inkscape:window-maximized="1" />
  <metadata
     id="metadata5">
    <rdf:RDF>
      <cc:Work
         rdf:about="">
        <dc:format>image/svg+xml</dc:format>
        <dc:type
           rdf:resource="http://purl.org/dc/dcmitype/StillImage" />
        <dc:title></dc:title>
      </cc:Work>
    </rdf:RDF>
  </metadata>
  <g
     inkscape:label="Livello 1"
     inkscape:groupmode="layer"
     id="layer1"
     transform="translate(30.584542,-379.08358)">
    <path
       style="fill:#000000;stroke-width:1"
       d="m -26.784685,397.97154 c -0.08976,-0.0898 0.01542,-0.43579 0.233724,-0.76897 0.353891,-0.54011 0.351027,-0.78779 -0.02642,-2.28478 -1.152996,-4.57287 -2.641839,-7.99444 -3.586101,-8.24137 -0.316244,-0.0827 -0.491493,-0.27486 -0.394218,-0.43225 0.09681,-0.15664 0.468292,-0.20979 0.83065,-0.11884 1.016884,0.25522 4.635848,-2.05874 7.447986,-4.76223 0.763984,-0.73447 1.389062,-1.54783 1.389062,-1.80746 0,-0.25963 0.119063,-0.47206 0.264583,-0.47206 0.145521,0 0.264584,0.22 0.264584,0.48889 0,0.54735 2.348746,2.86507 4.365625,4.30796 2.397132,1.71493 3.796791,2.41422 4.485933,2.24126 0.352556,-0.0885 0.719819,-0.0334 0.816139,0.12248 0.09728,0.15739 -0.07797,0.34955 -0.394218,0.43225 -0.948684,0.24808 -2.63247,4.08425 -3.573301,8.14103 -0.369378,1.59273 -0.372983,1.87574 -0.03055,2.39835 0.4894,0.74692 0.218309,1.06052 -0.418545,0.48418 -1.204273,-1.08985 -9.840787,-1.07743 -11.048894,0.0159 -0.254562,0.23038 -0.536278,0.34543 -0.626036,0.25567 z m 10.648378,-1.69004 c -0.0048,-0.0728 -0.256389,-0.42995 -0.558994,-0.79375 -0.534274,-0.64233 -0.647968,-0.66146 -3.930121,-0.66146 -3.282152,0 -3.395846,0.0191 -3.93012,0.66146 -0.302605,0.3638 -0.554152,0.72099 -0.558994,0.79375 -0.0048,0.0728 2.01526,0.13229 4.489114,0.13229 2.473855,0 4.493956,-0.0595 4.489115,-0.13229 z m -8.86092,-1.21833 c 0.548475,-0.83708 0.426508,-1.66215 -0.710022,-4.80311 -0.713051,-1.97061 -0.914576,-2.28101 -1.691784,-2.60574 -0.48527,-0.20276 -0.93575,-0.36866 -1.001066,-0.36866 -0.06532,0 0.285748,0.98227 0.780142,2.18282 0.494394,1.20054 1.108475,3.10554 1.364625,4.23333 0.256149,1.12779 0.542412,2.05052 0.636139,2.05052 0.09373,0 0.373611,-0.31012 0.621966,-0.68916 z m 10.042964,-1.57665 c 0.245906,-1.02792 0.840097,-2.84362 1.320426,-4.0349 0.480328,-1.19128 0.826302,-2.16596 0.76883,-2.16596 -0.05747,0 -0.504555,0.16716 -0.993518,0.37146 -0.957007,0.39986 -1.577719,1.67111 -2.469809,5.05829 -0.395085,1.5001 -0.391445,1.63631 0.06222,2.32869 0.265018,0.40447 0.568003,0.63999 0.673299,0.52338 0.105296,-0.11661 0.392643,-1.05305 0.638549,-2.08096 z m -3.1686,0.0372 c -0.801153,-1.22271 -4.060774,-1.22474 -4.962307,-0.003 l -0.475372,0.64417 h 2.928868 2.928868 z m -5.032525,-1.98493 c -0.324646,-1.87118 -0.885776,-2.83413 -1.81827,-3.12032 l -0.88365,-0.2712 0.474318,1.09054 c 0.260875,0.5998 0.68351,1.84779 0.939189,2.77331 l 0.464872,1.68278 0.490385,-0.62444 c 0.356715,-0.45423 0.447527,-0.87146 0.333156,-1.53067 z m 7.503413,-2.83787 c 0.299582,-0.55215 0.281417,-0.5607 -0.60983,-0.28717 -0.782697,0.24022 -0.997302,0.49226 -1.450488,1.7035 -0.646961,1.72916 -0.655546,2.02535 -0.08399,2.89766 l 0.447888,0.68356 0.693821,-2.21422 c 0.381601,-1.21783 0.832771,-2.47033 1.002599,-2.78333 z m -4.179697,2.55347 c -0.31086,-0.43656 -0.668047,-0.79375 -0.79375,-0.79375 -0.125702,0 -0.48289,0.35719 -0.79375,0.79375 l -0.565199,0.79375 h 1.358949 1.35895 z m -2.038309,-1.774 c -1.258773,-0.54242 -1.363112,-0.44708 -0.934742,0.85411 l 0.393993,1.19677 0.640283,-0.86604 0.640282,-0.86604 z m 3.441379,0.78096 c 0.423154,-1.22821 0.305803,-1.32515 -0.945461,-0.78096 l -0.733017,0.3188 0.599128,0.83944 c 0.32952,0.46169 0.620076,0.8185 0.645679,0.79289 0.0256,-0.0256 0.220755,-0.55218 0.433671,-1.17017 z m -2.509624,-2.8534 -0.08407,-0.67871 -0.821643,0.60893 c -1.147247,0.85024 -1.161804,1.04624 -0.104398,1.40561 0.829717,0.28198 0.934786,0.26417 1.010112,-0.1712 0.04624,-0.26725 0.04624,-0.79133 -1e-6,-1.16463 z m 2.506303,0.94215 c 0.115017,-0.10244 -0.271936,-0.50459 -0.859896,-0.89369 l -1.069019,-0.70744 v 1.18061 1.18062 l 0.859896,-0.28693 c 0.472942,-0.15781 0.954001,-0.37074 1.069019,-0.47317 z m -4.832057,-0.70757 c 1.480414,-0.98861 2.373975,-2.04708 2.373975,-2.81211 v -0.76391 l -0.727604,0.56084 c -0.400182,0.30846 -1.4809,1.07932 -2.401595,1.71303 l -1.673991,1.15219 0.747949,0.27252 c 1.006436,0.36671 0.941517,0.37144 1.681266,-0.12256 z m 6.848689,0.14072 0.849512,-0.29614 -1.669926,-1.14946 c -0.918459,-0.6322 -1.997347,-1.40184 -2.397529,-1.7103 l -0.727604,-0.56084 v 0.76391 c 0,0.5202 0.274337,1.02095 0.859896,1.56959 0.692393,0.64872 2.043909,1.67938 2.202202,1.67938 0.01867,0 0.416218,-0.13326 0.883449,-0.29614 z m -7.914297,-1.9167 c 0.654843,-0.44639 1.69664,-1.27737 2.315104,-1.84663 0.900569,-0.82891 1.124479,-1.21459 1.124479,-1.93689 v -0.90189 l -2.055163,1.67282 c -1.13034,0.92005 -2.818975,2.1368 -3.752521,2.7039 l -1.697357,1.03109 0.90825,0.31344 c 1.007886,0.34782 1.238294,0.27223 3.157208,-1.03584 z m 11.326453,0.74694 c 0.04491,-0.0354 -0.667373,-0.51945 -1.582858,-1.07557 -0.915485,-0.55613 -2.589342,-1.76391 -3.719682,-2.68396 l -2.055163,-1.67282 v 0.90189 c 0,0.73005 0.227066,1.11119 1.19179,2.00044 0.655485,0.6042 1.911407,1.56366 2.790939,2.13213 1.45593,0.94102 1.675013,1.008 2.446231,0.74795 0.465895,-0.1571 0.883829,-0.31463 0.928743,-0.35006 z"
       id="path6199"
       inkscape:connector-curvature="0" />
  </g>
</svg>
